<?xml version="1.0" encoding="UTF-8" standalone="no"?>
<!-- Created with Inkscape (http://www.inkscape.org/) -->

<svg
   width="128"
   height="128"
   viewBox="0 0 33.866666 33.866666"
   version="1.1"
   id="svg1"
   inkscape:version="1.4.2 (f4327f4, 2025-05-13)"
   sodipodi:docname="Bik.svg"
   xmlns:inkscape="http://www.inkscape.org/namespaces/inkscape"
   xmlns:sodipodi="http://sodipodi.sourceforge.net/DTD/sodipodi-0.dtd"
   xmlns="http://www.w3.org/2000/svg"
   xmlns:svg="http://www.w3.org/2000/svg">
  <sodipodi:namedview
     id="namedview1"
     pagecolor="#ffffff"
     bordercolor="#000000"
     borderopacity="0.25"
     inkscape:showpageshadow="2"
     inkscape:pageopacity="0.0"
     inkscape:pagecheckerboard="0"
     inkscape:deskcolor="#d1d1d1"
     inkscape:document-units="mm"
     inkscape:zoom="2.8756734"
     inkscape:cx="34.600591"
     inkscape:cy="32.861868"
     inkscape:window-width="1920"
     inkscape:window-height="1009"
     inkscape:window-x="1912"
     inkscape:window-y="-8"
     inkscape:window-maximized="1"
     inkscape:current-layer="layer1" />
  <defs
     id="defs1" />
  <g
     inkscape:label="Layer 1"
     inkscape:groupmode="layer"
     id="layer1">
    <circle
       style="fill:#00005e;fill-opacity:1;stroke-width:0.25428"
       id="path2"
       cx="16.933332"
       cy="16.933332"
       r="16.933332" />
    <path
       d="m 15.691861,32.519002 c -3.310435,-0.279315 -6.2657763,-1.489244 -8.8159683,-3.609307 -0.491168,-0.408324 -1.511268,-1.428219 -1.91051,-1.910132 -2.032192,-2.452968 -3.187546,-5.158389 -3.569789,-8.359156 -0.07923,-0.663468 -0.07897,-2.743777 4.6e-4,-3.398279 0.352897,-2.909028 1.324086,-5.3779048 3.008332,-7.6475258 0.8174,-1.101491 1.98423,-2.274491 3.115495,-3.131954 3.2242613,-2.443898 7.3398933,-3.52887101 11.4185823,-3.010196 4.189749,0.532798 7.942725,2.726007 10.51272,6.143552 1.566014,2.082464 2.568258,4.5130028 2.940224,7.1303148 0.114384,0.804857 0.138934,1.196284 0.138934,2.214948 0,1.227033 -0.0648,1.941306 -0.275267,3.034177 -0.82346,4.275876 -3.481412,8.068945 -7.25278,10.350173 -1.916416,1.159209 -4.111408,1.897394 -6.39759,2.151539 -0.535408,0.05952 -2.387914,0.08614 -2.912811,0.04185 z m 1.884369,-5.854304 c 1.495798,-0.120226 2.863707,-0.756489 3.942458,-1.833772 2.314646,-2.311504 2.470291,-5.892915 0.369256,-8.496494 -0.419198,-0.519462 -1.106453,-1.116398 -1.647301,-1.430815 -0.13904,-0.08082 -0.253388,-0.154682 -0.254111,-0.164127 -6.91e-4,-0.0094 0.0539,-0.0482 0.121397,-0.08613 0.206481,-0.11605 0.782929,-0.604505 1.166787,-0.988676 0.62096,-0.62147 1.067932,-1.220971 1.678482,-2.25125 0.519612,-0.876826 0.774133,-1.192647 1.182338,-1.4670788 0.322728,-0.216966 0.603793,-0.296861 1.15997,-0.329727 0.520667,-0.03077 0.652124,-0.0802 0.77342,-0.290817 0.09135,-0.158612 0.178781,-0.561483 0.157038,-0.723603 -0.03677,-0.274235 -0.324886,-0.396281 -0.930934,-0.394351 -0.753146,0.0024 -1.617459,0.255957 -2.133688,0.62595 -0.311674,0.223382 -0.761521,0.790901 -1.568222,1.9784258 -0.699738,1.030069 -0.960663,1.377127 -1.391472,1.850823 -0.574884,0.632107 -1.276172,1.117281 -1.915564,1.325244 -0.222444,0.07235 -0.247694,0.07388 -1.122646,0.06776 -0.891474,-0.0062 -0.895999,-0.0066 -1.122648,-0.08901 -0.498544,-0.181302 -0.954296,-0.458762 -1.417999,-0.863285 -0.549727,-0.479563 -1.00266,-1.054275 -1.929593,-2.448389 -0.681935,-1.0256458 -0.899007,-1.3119168 -1.241403,-1.6371508 -0.682557,-0.648351 -1.449664,-0.922638 -2.5755523,-0.920917 -0.357303,5.29e-4 -0.458214,0.01073 -0.558685,0.05636 -0.251215,0.114109 -0.369802,0.357686 -0.333969,0.685946 0.02917,0.267213 0.07324,0.412395 0.159968,0.527008 0.1211,0.160033 0.237322,0.191995 0.797262,0.21925 0.546618,0.02661 0.767733,0.07137 1.049342,0.212428 C 10.433135,10.020188 10.680174,10.3052 11.42124,11.4494 c 0.519384,0.801918 0.735522,1.110936 1.079001,1.542682 0.476254,0.598631 1.145743,1.232075 1.646488,1.557845 0.123464,0.08032 0.224608,0.152869 0.224763,0.161212 2.3e-4,0.0083 -0.09045,0.06209 -0.201333,0.119429 -0.837765,0.433217 -1.712125,1.229625 -2.289706,2.08556 -0.960072,1.422767 -1.269428,3.315666 -0.827196,5.061443 0.208172,0.821785 0.63609,1.670371 1.185992,2.351908 0.236737,0.293406 0.808769,0.846184 1.107324,1.070049 0.940914,0.705524 2.143746,1.172274 3.255541,1.263281 0.44439,0.03638 0.542573,0.03657 0.974116,0.0018 z m -1.060282,-1.489639 c -0.536798,-0.06897 -1.213782,-0.300952 -1.730695,-0.593045 -1.282895,-0.724932 -2.149285,-1.935414 -2.384539,-3.33156 -0.150971,-0.895965 -0.09656,-1.641666 0.180755,-2.47719 0.560642,-1.689184 2.053969,-2.956175 3.843865,-3.261273 0.40651,-0.06929 1.428707,-0.04474 1.802773,0.0433 0.420057,0.09886 0.714914,0.20657 1.135109,0.414632 1.22859,0.608354 2.133405,1.731062 2.48355,3.081619 0.113625,0.438257 0.150718,0.818582 0.133884,1.372714 -0.01637,0.539264 -0.101187,1.000689 -0.266134,1.448051 -0.113986,0.309143 -0.411942,0.908667 -0.581443,1.169912 -0.905461,1.395596 -2.385874,2.181271 -4.075831,2.163095 -0.183569,-0.0021 -0.427149,-0.01559 -0.541294,-0.03025 z"
       style="fill:#ffcc00;stroke-width:0.0303418"
       id="path1-2" />
  </g>
</svg>
