<?xml version="1.0" encoding="UTF-8" standalone="no"?>
<!-- Created with Inkscape (http://www.inkscape.org/) -->

<svg
   width="128"
   height="128"
   viewBox="0 0 33.866666 33.866666"
   version="1.1"
   id="svg1"
   inkscape:version="1.4.2 (f4327f4, 2025-05-13)"
   sodipodi:docname="Blizanci.svg"
   xmlns:inkscape="http://www.inkscape.org/namespaces/inkscape"
   xmlns:sodipodi="http://sodipodi.sourceforge.net/DTD/sodipodi-0.dtd"
   xmlns="http://www.w3.org/2000/svg"
   xmlns:svg="http://www.w3.org/2000/svg">
  <sodipodi:namedview
     id="namedview1"
     pagecolor="#ffffff"
     bordercolor="#000000"
     borderopacity="0.25"
     inkscape:showpageshadow="2"
     inkscape:pageopacity="0.0"
     inkscape:pagecheckerboard="0"
     inkscape:deskcolor="#d1d1d1"
     inkscape:document-units="mm"
     inkscape:zoom="4.0668163"
     inkscape:cx="64"
     inkscape:cy="64"
     inkscape:window-width="1920"
     inkscape:window-height="1009"
     inkscape:window-x="1912"
     inkscape:window-y="-8"
     inkscape:window-maximized="1"
     inkscape:current-layer="layer1" />
  <defs
     id="defs1" />
  <g
     inkscape:label="Layer 1"
     inkscape:groupmode="layer"
     id="layer1">
    <g
       id="g1"
       transform="matrix(0.25413,0,0,0.25413,-28.093223,-49.610583)">
      <path
         d="m 133.72,254.91 c 0,-20.59 -16.7,-37.29 -37.29,-37.29 -20.59,0 -37.29,16.7 -37.29,37.29 0,20.59 16.7,37.29 37.29,37.29 20.59,0 37.29,-16.7 37.29,-37.29 z"
         style="fill:#111111;fill-opacity:1;fill-rule:nonzero;stroke:none"
         id="path1" />
      <g
         id="g2"
         transform="translate(182.26,254.91)">
        <path
           d="m 0,0 c -0.02,-11.39 -4.01,-21.8 -10.98,-29.41 -15.42,-16.84 -42.06,-16.84 -57.48,0"
           style="fill:none;stroke:#111111;stroke-width:8;stroke-linecap:round;stroke-linejoin:round;stroke-miterlimit:10;stroke-dasharray:none;stroke-opacity:1"
           id="path2" />
      </g>
      <g
         id="g3"
         transform="translate(182.26,292.2)">
        <path
           d="m 0,0 c -0.02,11.39 -4.01,21.8 -10.98,29.41 -15.42,16.84 -42.06,16.84 -57.48,0"
           style="fill:none;stroke:#111111;stroke-width:8;stroke-linecap:round;stroke-linejoin:round;stroke-miterlimit:10;stroke-dasharray:none;stroke-opacity:1"
           id="path3" />
      </g>
      <g
         id="g4"
         transform="translate(150.31,235.34)">
        <path
           d="m 0,0 c -2.87,1.3 -5.04,4.2 -5.2,7.2 -0.17,3 1.5,5.8 4.2,7.1 2.7,1.3 5.9,0.7 7.9,-1.4 2,-2.1 2.2,-5.3 0.6,-7.7 -1.6,-2.4 -4.5,-3.8 -7.5,-2.2"
           style="fill:#f9edcd;fill-opacity:1;fill-rule:nonzero;stroke:none"
           id="path4" />
      </g>
      <g
         id="g5"
         transform="translate(171.74,250.72)">
        <path
           d="m 0,0 c -1.18,3.01 -4.43,4.72 -7.5,4.12 -3.07,-0.6 -5.25,-3.2 -5.25,-6.2 0,-3 2.18,-5.6 5.25,-6.2 3.07,-0.6 6.32,1.11 7.5,4.12"
           style="fill:#f9edcd;fill-opacity:1;fill-rule:nonzero;stroke:none"
           id="path5" />
      </g>
      <g
         id="g6"
         transform="translate(171.74,271.85)">
        <path
           d="m 0,0 c -1.18,3.01 -4.43,4.72 -7.5,4.12 -3.07,-0.6 -5.25,-3.2 -5.25,-6.2 0,-3 2.18,-5.6 5.25,-6.2 3.07,-0.6 6.32,1.11 7.5,4.12"
           style="fill:#f9edcd;fill-opacity:1;fill-rule:nonzero;stroke:none"
           id="path6" />
      </g>
      <g
         id="g7"
         transform="translate(171.74,292.99)">
        <path
           d="m 0,0 c -1.18,3.01 -4.43,4.72 -7.5,4.12 -3.07,-0.6 -5.25,-3.2 -5.25,-6.2 0,-3 2.18,-5.6 5.25,-6.2 3.07,-0.6 6.32,1.11 7.5,4.12"
           style="fill:#f9edcd;fill-opacity:1;fill-rule:nonzero;stroke:none"
           id="path7" />
      </g>
      <g
         id="g8"
         transform="translate(150.31,308.36)">
        <path
           d="m 0,0 c -2.87,1.3 -5.04,4.2 -5.2,7.2 -0.17,3 1.5,5.8 4.2,7.1 2.7,1.3 5.9,0.7 7.9,-1.4 2,-2.1 2.2,-5.3 0.6,-7.7 -1.6,-2.4 -4.5,-3.8 -7.5,-2.2"
           style="fill:#f9edcd;fill-opacity:1;fill-rule:nonzero;stroke:none"
           id="path8" />
      </g>
      <g
         id="g9"
         transform="translate(128.88,292.99)">
        <path
           d="m 0,0 c 1.18,3.01 4.43,4.72 7.5,4.12 3.07,-0.6 5.25,-3.2 5.25,-6.2 0,-3 -2.18,-5.6 -5.25,-6.2 -3.07,-0.6 -6.32,1.11 -7.5,4.12"
           style="fill:#f9edcd;fill-opacity:1;fill-rule:nonzero;stroke:none"
           id="path9" />
      </g>
      <g
         id="g10"
         transform="translate(128.88,271.85)">
        <path
           d="m 0,0 c 1.18,3.01 4.43,4.72 7.5,4.12 3.07,-0.6 5.25,-3.2 5.25,-6.2 0,-3 -2.18,-5.6 -5.25,-6.2 -3.07,-0.6 -6.32,1.11 -7.5,4.12"
           style="fill:#f9edcd;fill-opacity:1;fill-rule:nonzero;stroke:none"
           id="path10" />
      </g>
      <g
         id="g11"
         transform="translate(128.88,250.72)">
        <path
           d="m 0,0 c 1.18,3.01 4.43,4.72 7.5,4.12 3.07,-0.6 5.25,-3.2 5.25,-6.2 0,-3 -2.18,-5.6 -5.25,-6.2 -3.07,-0.6 -6.32,1.11 -7.5,4.12"
           style="fill:#f9edcd;fill-opacity:1;fill-rule:nonzero;stroke:none"
           id="path11" />
      </g>
      <path
         d="m 133.72,254.91 c 0,-20.59 -16.7,-37.29 -37.29,-37.29 -20.59,0 -37.29,16.7 -37.29,37.29 0,20.59 16.7,37.29 37.29,37.29 20.59,0 37.29,-16.7 37.29,-37.29 z"
         style="fill:none;stroke:#af9269;stroke-width:1;stroke-linecap:butt;stroke-linejoin:miter;stroke-miterlimit:10;stroke-dasharray:none;stroke-opacity:1"
         id="path12" />
      <g
         id="g13"
         transform="translate(128.83,275.05)">
        <path
           d="M -1.8499911,-1.2334812 -1.4116813,0.38045953 0.35418196,0.37583685 0.38792078,1.4939221 -1.4554341,1.4880295 -2.3168864,0.36674218 -3.978644,-1.2223049 -4.0181518,-2.3392397 l 1.7820465,-0.003952 0.3695279,0.8035172 z M -0.90045508,2.7753755 -4.0152912,2.7836376 -4.0381559,4.2882897 H 0.36789936 L 0.35102717,2.768131 Z"
           style="fill:#af9269;fill-opacity:1;fill-rule:nonzero;stroke:none"
           aria-label="G"
           transform="matrix(1.3333333,0,0,-1.3333333,0,0)" />
      </g>
      <g
         id="g14"
         transform="translate(138.83,275.05)">
        <path
           d="M 1.7319384,-7.1604992 c 0.4311731,0.00578 0.697464,-0.3289057 0.7006634,-0.7104271 5.057e-4,-0.4895294 -0.3140725,-0.6635042 -0.6955939,-0.6667036 -0.4398778,0.00207 -0.6879007,0.3045092 -0.6902415,0.6694801 -0.00835,0.4808247 0.3114965,0.7131558 0.685172,0.7076506 z M 0.56397955,-0.00222541 3.1858367,0.00104393 3.2351353,-0.46935882 2.6453262,-0.61612571 C 2.4318864,-0.66038985 2.4179119,-0.71090021 2.4177943,-0.86855983 L 2.4151227,-5.6148988 2.2878704,-5.7210717 c -0.2987687,0.00109 -0.7900154,0.03369 -1.80034028,0.1555193 l -0.0615557,0.3867913 c 0.68212518,0.1266639 0.91738538,0.230143 0.90719868,0.5864093 l 0.00431,3.4354104 c -0.00234,0.36497085 -0.00136,0.5060799 -0.84875971,0.6861483 z m 0,0"
           style="fill:#af9269;fill-opacity:1;fill-rule:nonzero;stroke:none"
           aria-label="i"
           transform="matrix(1.3333333,0,0,-1.3333333,0,0)" />
      </g>
      <g
         id="g15"
         transform="translate(145.47,275.05)">
        <path
           d="M 1.7011986,2.2343265 C 1.9504294,2.330738 2.722986,2.5072665 3.4097011,2.5040191 4.8675416,2.5015248 5.679148,1.7167559 5.6759926,0.75346844 5.6827426,-0.14427256 4.9504866,-0.55316796 4.1789761,-0.88908526 C 3.4332842,-1.2205251 2.6508186,-1.4626001 2.6480483,-2.0907233 2.6505852,-2.3509091 2.7827166,-2.5301159 2.8944687,-2.622435 3.0270846,-2.7130383 3.3101347,-2.7809701 3.7038907,-2.7818322 3.9968516,-2.7842135 4.2878104,-2.7443885 4.4481533,-2.6261589 4.5494265,-2.5660439 4.604495,-2.4235183 4.6722428,-1.5872334 L 5.2249106,-1.6456414 C 5.3257995,-1.9206907 5.3890527,-2.4991311 5.3886676,-2.8342954 5.3871401,-2.9350924 5.3827226,-3.0264574 5.3843326,-3.1272544 5.0904194,-3.2420528 4.5828466,-3.416012 3.9231889,-3.4246738 c -1.3242703,-0.00094 -2.2162867,0.6954111 -2.2081768,1.6914718 -0.00923,0.8813544 0.694733,1.2693858 1.4076517,1.6057801 0.7620786,0.3289626 1.5306348,0.5899014 1.5314049,1.2602298 -0.00752,0.2274126 -0.085548,0.4319608 -0.26237,0.5927807 C 4.2431256,1.8081481 4.0186674,1.8756028 3.6671166,1.8784651 3.2311553,1.877327 2.8553091,1.7749149 2.6716249,1.6685944 2.5584416,1.5851381 2.5440552,1.5454102 2.4182847,0.49171164 l -0.6206915,0.05193 c -0.070116,0.3123 -0.1204139,0.75569296 -0.121552,1.19165406 -0.001046,0.1593888 3.851e-4,0.3351642 0.025157,0.4990307 z m 0,0"
           style="fill:#af9269;fill-opacity:1;fill-rule:nonzero;stroke:none"
           aria-label="s"
           transform="matrix(1.3333333,0,0,-1.3333333,0,0)" />
      </g>
    </g>
  </g>
</svg>