<?xml version="1.0" encoding="UTF-8" standalone="no"?>
<!-- Created with Inkscape (http://www.inkscape.org/) -->

<svg
   width="128"
   height="128"
   viewBox="0 0 33.866666 33.866666"
   version="1.1"
   id="svg1"
   inkscape:version="1.4.2 (f4327f4, 2025-05-13)"
   sodipodi:docname="Blizanci.svg"
   xmlns:inkscape="http://www.inkscape.org/namespaces/inkscape"
   xmlns:sodipodi="http://sodipodi.sourceforge.net/DTD/sodipodi-0.dtd"
   xmlns="http://www.w3.org/2000/svg"
   xmlns:svg="http://www.w3.org/2000/svg">
  <sodipodi:namedview
     id="namedview1"
     pagecolor="#ffffff"
     bordercolor="#000000"
     borderopacity="0.25"
     inkscape:showpageshadow="2"
     inkscape:pageopacity="0.0"
     inkscape:pagecheckerboard="0"
     inkscape:deskcolor="#d1d1d1"
     inkscape:document-units="mm"
     inkscape:zoom="2.8756734"
     inkscape:cx="34.600591"
     inkscape:cy="32.861868"
     inkscape:window-width="1920"
     inkscape:window-height="1009"
     inkscape:window-x="1912"
     inkscape:window-y="-8"
     inkscape:window-maximized="1"
     inkscape:current-layer="layer1" />
  <defs
     id="defs1" />
  <g
     inkscape:label="Layer 1"
     inkscape:groupmode="layer"
     id="layer1">
    <circle
       style="fill:#00005e;fill-opacity:1;stroke-width:0.25428"
       id="path2"
       cx="16.933332"
       cy="16.933332"
       r="16.933332" />
    <path
       d="M 15.708479,32.518851 C 12.9836,32.290008 10.458878,31.416451 8.2595764,29.941504 6.2520274,28.595158 4.5647104,26.792898 3.3745044,24.723646 0.67476643,20.029981 0.62812443,14.08888 3.2540654,9.3824575 5.1350174,6.0112708 8.1307504,3.4751884 11.733709,2.2038951 c 4.272325,-1.50747506 9.178983,-1.0479284 13.046959,1.2219545 1.227151,0.7201413 2.161666,1.4438255 3.188407,2.4690853 1.290233,1.2883758 2.200118,2.5552224 2.98673,4.1584661 0.341491,0.696011 0.577047,1.261748 0.784721,1.88467 1.016921,3.050276 1.077472,6.387418 0.171612,9.457878 -0.753744,2.554846 -2.124604,4.823259 -4.055504,6.710804 -1.269016,1.240521 -2.57231,2.158988 -4.13661,2.915192 -1.62606,0.786059 -3.292488,1.253044 -5.250443,1.471347 -0.393543,0.04388 -2.329566,0.0618 -2.761102,0.02556 z m -4.282987,-6.313264 c 0.06939,-0.03513 0.290011,-0.169528 0.490268,-0.298658 1.152397,-0.743093 2.220635,-1.216086 3.352764,-1.484527 1.708834,-0.405188 3.720936,-0.293678 5.447271,0.301891 0.501105,0.172874 1.246723,0.546826 1.789238,0.89736 0.250323,0.161736 0.537053,0.333052 0.637181,0.380698 0.323088,0.153741 0.557175,0.09978 0.838069,-0.19318 0.290513,-0.302999 0.34571,-0.571295 0.170793,-0.830157 -0.246397,-0.364643 -1.431652,-1.068812 -2.510783,-1.491668 L 21.169997,23.30306 V 17.532869 11.76284 l 0.3641,-0.145419 c 1.607949,-0.642203 2.589625,-1.265268 2.728082,-1.7315028 0.02651,-0.089253 0.04789,-0.1973447 0.04752,-0.2402086 C 24.307599,9.4107766 24.027426,9.1012468 23.74143,9.0181045 23.473945,8.9403455 23.334057,8.9905545 22.666429,9.4039457 21.722737,9.9882715 20.957573,10.311948 19.8809,10.582266 17.952504,11.066423 15.872251,10.943484 13.933482,10.23078 13.432925,10.046773 12.582619,9.6097322 12.133509,9.3056264 11.49504,8.873302 11.417578,8.82849 11.270694,8.8064648 c -0.301057,-0.045148 -0.616362,0.1016933 -0.810016,0.3772328 -0.07737,0.1100901 -0.09133,0.1583696 -0.0918,0.3176332 -4.6e-4,0.1666701 0.01138,0.2043754 0.105363,0.334946 0.33433,0.4644382 1.549233,1.2191772 2.693112,1.6730602 l 0.371686,0.147478 -4.61e-4,5.873405 -4.61e-4,5.873401 -0.386455,0.150047 c -0.509574,0.197852 -1.435951,0.662407 -1.799351,0.902335 -0.584349,0.385795 -0.941057,0.740421 -0.986058,0.980301 -0.04145,0.220942 0.2456,0.639362 0.540864,0.788387 0.181987,0.09185 0.308056,0.08717 0.518258,-0.01925 z m 3.630637,-8.684318 c 0,-2.980891 0.0041,-5.419799 0.009,-5.419799 0.005,0 0.131252,0.02652 0.280662,0.05892 0.722395,0.15669 1.937749,0.264289 2.607973,0.230889 0.65728,-0.03276 1.399768,-0.11789 1.630868,-0.186999 0.05043,-0.01508 0.0531,0.253572 0.0531,5.344778 v 5.360659 l -0.06885,-0.01728 c -0.450126,-0.112975 -1.419986,-0.200402 -2.230731,-0.201091 -0.866706,-6.45e-4 -1.23718,0.03825 -2.183412,0.229762 l -0.09861,0.01996 z"
       style="fill:#ffcc00;stroke-width:0.0303418"
       id="path1" />
  </g>
</svg>
