<?xml version="1.0" encoding="UTF-8" standalone="no"?>
<!-- Created with Inkscape (http://www.inkscape.org/) -->

<svg
   width="128"
   height="128"
   viewBox="0 0 33.866666 33.866666"
   version="1.1"
   id="svg1"
   xmlns="http://www.w3.org/2000/svg"
   xmlns:svg="http://www.w3.org/2000/svg">
  <g
     inkscape:label="Layer 1"
     inkscape:groupmode="layer"
     id="layer1">
    <circle
       style="fill:#00005e;fill-opacity:1;stroke-width:0.25428"
       id="path2"
       cx="16.933332"
       cy="16.933332"
       r="16.933332" />
    <path
       d="M 16.22583,32.541946 C 14.926112,32.455123 14.109846,32.333911 13.067269,32.072917 8.7086827,30.98181 4.9749157,27.968674 2.9548687,23.912247 c -0.842714,-1.692234 -1.335148,-3.383572 -1.554783,-5.340149 -0.0644,-0.573693 -0.0887,-2.076819 -0.04391,-2.715588 0.194267,-2.770283 1.082334,-5.366482 2.619477,-7.6578504 0.873087,-1.301486 2.101641,-2.611327 3.405555,-3.630881 0.390146,-0.305065 1.324924,-0.933662 1.75982,-1.183401 3.5005503,-2.010193 7.7180913,-2.58483399 11.6607583,-1.588777 3.871146,0.977985 7.244119,3.440465 9.38927,6.854739 1.247612,1.9857264 2.021296,4.2426404 2.2883,6.6751894 0.04329,0.394342 0.05475,0.738997 0.05398,1.623284 -0.0012,1.198551 -0.02878,1.585387 -0.181021,2.524037 -0.640323,3.947894 -2.767049,7.47184 -5.992333,9.929178 -2.285527,1.741334 -5.008797,2.798936 -7.935546,3.081822 -0.463798,0.04483 -1.849197,0.08144 -2.198607,0.0581 z m 4.260476,-7.279809 c 1.152797,-0.171173 2.429396,-0.84938 3.574346,-1.898911 l 0.264547,-0.242501 0.251263,0.217454 c 0.575553,0.498114 1.126236,0.780624 1.883282,0.966148 0.541622,0.132733 0.870598,0.163487 1.560052,0.145843 0.639866,-0.01637 0.779837,-0.04236 0.895767,-0.166273 0.06109,-0.0653 0.06844,-0.102033 0.06429,-0.321299 -0.005,-0.264169 -0.07159,-0.602342 -0.147491,-0.749124 -0.09393,-0.181653 -0.154338,-0.197318 -0.720548,-0.18689 -1.218256,0.02244 -2.0359,-0.231417 -2.683888,-0.833284 l -0.158335,-0.147071 0.244746,-0.333758 c 0.50043,-0.68243 1.035982,-1.627585 1.392593,-2.457685 0.20991,-0.488607 0.522025,-1.433308 0.621207,-1.880232 0.268011,-1.207651 0.276874,-2.276977 0.02527,-3.047776 -0.231475,-0.709115 -0.733738,-1.229986 -1.395036,-1.44673 -0.238466,-0.07816 -0.311318,-0.08806 -0.647946,-0.08806 -0.407362,0 -0.663299,0.0565 -0.977759,0.215848 l -0.144887,0.07342 -4.6e-4,-0.508737 c -6.91e-4,-0.856891 -0.07055,-1.479653 -0.226852,-2.025823 -0.24198,-0.8455524 -0.730578,-1.4507644 -1.44416,-1.7888534 -0.360064,-0.170597 -0.653559,-0.235713 -1.074438,-0.238384 -0.420628,-0.0027 -0.700023,0.06097 -1.059329,0.241293 -0.294555,0.147829 -0.449749,0.267327 -0.740536,0.570219 -0.646558,0.6734724 -1.089461,1.6157054 -1.648254,3.5065284 -0.174021,0.588855 -0.238641,0.757158 -0.238227,0.620489 4.61e-4,-0.151334 -0.234061,-1.362603 -0.363929,-1.879672 -0.291669,-1.161282 -0.616922,-1.8204264 -1.148718,-2.3279544 -0.799737,-0.763238 -2.039938,-0.810054 -2.98085,-0.112529 -0.599281,0.444265 -1.1676,1.2451094 -1.617356,2.2790814 -0.170823,0.392712 -0.481289,1.271504 -0.579751,1.641 -0.03008,0.112884 -0.0621,0.197831 -0.07116,0.188777 -0.0091,-0.009 -0.05456,-0.244779 -0.101134,-0.523831 -0.350341,-2.099305 -1.020929,-3.3206464 -2.0929533,-3.8119004 -0.766345,-0.351176 -1.6647,-0.244009 -2.468009,0.294418 -0.426541,0.285892 -0.936123,0.9134324 -1.305266,1.6073974 -0.158493,0.297957 -0.192715,0.459584 -0.12503,0.590469 0.134958,0.260981 0.670997,0.50381 0.947268,0.429115 0.165872,-0.04485 0.413759,-0.310684 0.619568,-0.66444 0.221006,-0.379872 0.59843,-0.766165 0.887225,-0.908062 0.259472,-0.12749 0.544031,-0.156159 0.778133,-0.0784 0.6883,0.228617 1.157093,1.317076 1.411842,3.278053 0.04119,0.317071 0.124031,1.095338 0.184091,1.729481 0.1268843,1.339685 0.1752613,1.78118 0.2596803,2.369825 l 0.06137,0.427953 -0.138979,0.755376 c -0.1851893,1.006575 -0.3083913,1.775906 -0.3484643,2.175978 -0.02711,0.270697 -0.02459,0.376311 0.01435,0.601944 0.08889,0.515124 0.2810283,0.900495 0.5929373,1.189264 0.381944,0.353615 0.799737,0.350389 1.152498,-0.0089 0.201942,-0.205677 0.339477,-0.474214 0.447391,-0.873536 0.0766,-0.283452 0.08016,-0.33047 0.08102,-1.070193 0.0012,-0.839083 0.0035,-0.815457 -0.22882,-2.108753 l -0.125375,-0.697861 0.06754,-0.394442 c 0.14637,-0.854786 0.493163,-2.54139 0.666061,-3.239319 0.395983,-1.598461 0.812715,-2.703405 1.28215,-3.399564 0.185494,-0.275081 0.525857,-0.602839 0.727795,-0.700833 0.696021,-0.3377714 1.201614,-0.03099 1.54031,0.934611 0.258523,0.737048 0.466759,1.814134 0.930849,4.814776 l 0.143533,0.928043 -0.171286,0.695242 c -0.461025,1.871331 -0.5611,2.459564 -0.526085,3.092245 0.05004,0.904101 0.399001,1.532056 1.00571,1.809756 0.126987,0.05812 0.204012,0.0696 0.472677,0.07044 0.305267,9.44e-4 0.328246,-0.0035 0.46975,-0.09099 0.273841,-0.169302 0.444204,-0.462642 0.553932,-0.953776 0.04022,-0.180032 0.05077,-0.380066 0.04965,-0.941626 -0.0016,-0.778158 -0.01877,-0.959197 -0.242772,-2.555347 -0.0743,-0.529321 -0.13508,-0.995726 -0.13508,-1.03645 0,-0.167749 1.05993,-3.902674 1.384713,-4.879375 0.332958,-1.001293 0.876014,-1.866222 1.302839,-2.07505 0.151367,-0.07406 0.187653,-0.07947 0.445345,-0.06644 0.453724,0.02294 0.694527,0.1438594 0.900377,0.4521234 0.400362,0.59955 0.461712,1.55404 0.275702,4.289408 -0.03291,0.483951 -0.07378,1.12378 -0.09082,1.421843 -0.03968,0.693959 -0.03998,2.29209 -4.6e-4,2.798843 0.08252,1.059883 0.299141,2.023941 0.610368,2.716416 0.06474,0.144054 0.117712,0.275115 0.117712,0.291251 0,0.04387 -0.556866,0.575086 -0.834399,0.795968 -0.739029,0.58818 -1.520934,0.969631 -2.275634,1.110165 -0.211759,0.03943 -0.388889,0.04779 -0.788885,0.0372 -0.283694,-0.0075 -0.559267,-0.0019 -0.612385,0.01257 -0.133424,0.0362 -0.356482,0.293463 -0.433935,0.500486 -0.212775,0.568688 -0.02936,0.821399 0.66705,0.919043 0.26119,0.03662 0.883191,0.01478 1.286982,-0.04516 z m 4.011351,-4.651161 c -0.0099,-0.01603 -0.05907,-0.197273 -0.109245,-0.402765 -0.216065,-0.884824 -0.297357,-2.000631 -0.242986,-3.335252 0.04489,-1.10182 0.05437,-1.167443 0.219747,-1.521328 0.437631,-0.936438 0.9593,-1.321065 1.459702,-1.07624 0.279161,0.13658 0.421648,0.431692 0.481522,0.997287 0.104414,0.986414 -0.239507,2.426253 -0.914939,3.830401 -0.351302,0.730314 -0.852153,1.575283 -0.893801,1.507897 z"
       style="fill:#ffcc00;stroke-width:0.0303418"
       id="path1-6" />
  </g>
</svg>
