<?xml version="1.0" encoding="UTF-8" standalone="no"?>
<!-- Created with Inkscape (http://www.inkscape.org/) -->

<svg
   width="128"
   height="128"
   viewBox="0 0 33.866666 33.866666"
   version="1.1"
   id="svg1"
   xmlns="http://www.w3.org/2000/svg"
   xmlns:svg="http://www.w3.org/2000/svg">
  <g
     inkscape:label="Layer 1"
     inkscape:groupmode="layer"
     id="layer1">
    <circle
       style="fill:#00005e;fill-opacity:1;stroke-width:0.25428"
       id="path2"
       cx="16.933332"
       cy="16.933332"
       r="16.933332" />
    <path
       d="M 16.06911,32.524179 C 10.001784,32.191775 4.6815384,28.374626 2.4295574,22.738123 c -1.050081,-2.628262 -1.36323,-5.583824 -0.891799,-8.416983 0.534315,-3.211046 2.032973,-6.1163755 4.351309,-8.4355575 2.389561,-2.390427 5.4470896,-3.928779 8.7691506,-4.412079 1.342525,-0.195317 2.9622,-0.206677 4.338872,-0.03044 2.604068,0.33337 5.145578,1.363979 7.268538,2.947472 1.172324,0.874428 2.342688,2.042246 3.202607,3.195638 1.019265,1.367123 1.765029,2.8004255 2.305258,4.4305425 0.371936,1.122291 0.600934,2.230918 0.729832,3.533263 0.05164,0.521735 0.05269,2.182307 0.0017,2.730761 -0.188807,2.032037 -0.704633,3.862451 -1.584987,5.624353 -0.789763,1.580594 -1.673382,2.803937 -2.940548,4.071106 -0.614712,0.614711 -1.088538,1.027889 -1.712123,1.492988 -2.923918,2.180787 -6.515726,3.256746 -10.198286,3.05499 z M 14.096896,25.91022 c 0.978402,-0.08381 1.715892,-0.276579 2.499231,-0.653247 0.707127,-0.340023 1.215118,-0.70862 1.779388,-1.291115 0.744441,-0.768489 1.342663,-1.746893 2.126296,-3.477597 0.126603,-0.279612 0.234191,-0.512467 0.239083,-0.517464 0.0049,-0.005 0.0737,0.111067 0.152912,0.257907 0.589998,1.093778 1.360802,1.718651 2.483292,2.01315 1.317961,0.34578 2.455441,0.06681 3.29552,-0.808232 0.663726,-0.691354 1.037212,-1.611652 1.082514,-2.667414 0.04704,-1.096214 -0.265693,-2.027531 -0.908428,-2.70528 -0.49283,-0.519676 -1.053773,-0.805411 -1.838844,-0.936687 -0.380731,-0.06366 -1.161748,-0.04754 -1.520186,0.03137 -0.675874,0.148802 -1.423281,0.514797 -1.888776,0.924906 -0.07927,0.06983 -0.144157,0.108745 -0.144196,0.08647 0,-0.02227 -0.01326,-0.218004 -0.02937,-0.434948 -0.01611,-0.21695 -0.05036,-0.947427 -0.07612,-1.62329 -0.07691,-2.018355 -0.132055,-2.763508 -0.25993,-3.512225 -0.310156,-1.8160045 -1.065586,-2.9169235 -2.259797,-3.2932995 -0.864507,-0.27246 -1.76413,-0.144346 -2.520546,0.358953 -0.990566,0.659103 -1.770719,2.04696 -2.344595,4.1709365 -0.08684,0.321412 -0.12364,0.419518 -0.136563,0.364102 -0.0097,-0.04172 -0.06619,-0.297172 -0.12545,-0.567677 C 13.211938,9.3912555 12.530942,8.1537465 11.5112,7.6477945 c -0.342719,-0.170035 -0.612788,-0.226817 -1.070496,-0.225064 -0.4467966,0.0018 -0.6466926,0.0415 -1.1141946,0.221792 -0.275024,0.10606 -0.776515,0.396854 -1.055436,0.612003 -0.629543,0.485604 -1.470496,1.399155 -1.713883,1.8618405 -0.144771,0.275211 -0.118865,0.450891 0.100144,0.679165 0.158708,0.165423 0.392921,0.319454 0.563449,0.370543 0.104802,0.0314 0.158023,0.03166 0.271814,0.0014 0.173217,-0.04619 0.253358,-0.120073 0.530702,-0.489262 0.274668,-0.365633 0.903163,-1.0012595 1.219011,-1.2328385 0.426471,-0.312693 0.8501736,-0.494724 1.1549616,-0.496193 0.14476,-6.91e-4 0.381053,0.07993 0.537017,0.183235 0.774835,0.513228 1.390954,2.8652215 1.890506,7.2169025 0.06878,0.599181 0.07653,0.74387 0.04953,0.925424 -0.313695,2.109479 -0.431412,3.078893 -0.430539,3.545481 0.0013,0.693818 0.257618,1.226505 0.693043,1.440336 0.147748,0.07256 0.206463,0.08381 0.429079,0.08221 0.215419,-0.0016 0.289066,-0.01594 0.447063,-0.08737 0.354198,-0.160129 0.572819,-0.476488 0.665554,-0.96309 0.08697,-0.456356 0.03305,-1.896832 -0.136099,-3.63549 -0.05681,-0.58396 -0.06033,-0.530639 0.103981,-1.57431 0.358807,-2.279047 0.804228,-4.099916 1.321992,-5.404297 0.400152,-1.0080825 0.844317,-1.5746295 1.467898,-1.8723595 0.235641,-0.112503 0.248561,-0.115025 0.589849,-0.115025 0.318059,0 0.364853,0.0075 0.528862,0.08426 0.367212,0.171972 0.595235,0.438277 0.775486,0.905681 0.280635,0.7277085 0.407908,1.7393015 0.499602,3.9709355 0.09241,2.249162 0.151549,3.213178 0.242424,3.951828 l 0.04011,0.325987 -0.311631,0.614605 c -0.171399,0.338037 -0.452513,0.921822 -0.624704,1.2973 -0.783159,1.70778 -1.257067,2.479369 -1.938137,3.155545 -0.519119,0.515389 -1.087065,0.873479 -1.748329,1.102317 -0.738957,0.255728 -1.209923,0.308364 -2.520182,0.281662 -0.891448,-0.01815 -1.01998,-0.01485 -1.129844,0.0291 -0.256325,0.102562 -0.397816,0.379991 -0.397816,0.780032 0,0.466441 0.210335,0.613751 0.982093,0.687821 0.690853,0.0663 1.155177,0.07474 1.672813,0.0304 z m 9.77005,-4.956485 c -0.426157,-0.09748 -0.780836,-0.297617 -1.107475,-0.624908 -0.457093,-0.458001 -0.853915,-1.220096 -1.016417,-1.952024 l -0.05277,-0.237702 0.146961,-0.217423 c 0.20499,-0.303285 0.676946,-0.767414 0.956203,-0.940351 0.487414,-0.30184 1.031406,-0.432993 1.680336,-0.405119 0.872205,0.03746 1.305585,0.277683 1.597199,0.885306 0.380116,0.792037 0.34268,1.829071 -0.09435,2.613644 -0.343344,0.61639 -0.806631,0.885738 -1.563529,0.909022 -0.2386,0.0073 -0.426855,-0.0032 -0.546152,-0.03045 z"
       style="fill:#ffcc00;stroke-width:0.0303418"
       id="path1" />
  </g>
</svg>