<?xml version="1.0" encoding="UTF-8" standalone="no"?>
<!-- Created with Inkscape (http://www.inkscape.org/) -->

<svg
   width="128"
   height="128"
   viewBox="0 0 33.866666 33.866666"
   version="1.1"
   id="svg1"
   xmlns="http://www.w3.org/2000/svg"
   xmlns:svg="http://www.w3.org/2000/svg">
  <g
     inkscape:label="Layer 1"
     inkscape:groupmode="layer"
     id="layer1">
    <circle
       style="fill:#00005e;fill-opacity:1;stroke-width:0.25428"
       id="path2"
       cx="16.933332"
       cy="16.933332"
       r="16.933332" />
    <path
       d="M 15.994377,32.522536 C 12.963671,32.348648 10.04103,31.284695 7.6070865,29.469238 6.4412335,28.599642 5.2926195,27.453631 4.4051025,26.274505 2.0146405,23.09864 0.93912251,19.008376 1.4359595,14.982679 c 0.33091,-2.681253 1.351243,-5.2244822 2.96291,-7.3852132 0.638634,-0.856202 1.586098,-1.871207 2.375503,-2.544845 2.509233,-2.141253 5.5363645,-3.400719 8.8749665,-3.692512 1.020781,-0.08922 2.573813,-0.03442 3.656182,0.129013 4.745216,0.71649 8.908094,3.603386 11.274806,7.818913 2.213295,3.9422622 2.583401,8.8066432 0.995744,13.0873202 -1.149637,3.099682 -3.294972,5.781085 -6.096001,7.619242 -2.783336,1.826552 -6.096104,2.702416 -9.485693,2.507939 z m 3.723436,-5.400157 c 1.069788,-0.166263 2.072992,-1.078119 2.451661,-2.228423 0.139669,-0.424278 0.174828,-0.644465 0.191677,-1.200439 0.01243,-0.410224 0.0047,-0.605824 -0.03374,-0.849568 -0.09427,-0.598279 -0.271555,-1.038791 -0.473177,-1.175738 -0.09024,-0.0613 -0.131059,-0.06965 -0.271684,-0.05562 -0.212017,0.02116 -0.555654,0.189878 -0.710248,0.348715 -0.163712,0.168206 -0.169957,0.278494 -0.04579,0.808724 0.08832,0.377157 0.09947,0.474114 0.09943,0.864739 0,0.518202 -0.04617,0.74505 -0.225154,1.107476 -0.499122,1.010662 -1.650112,1.232694 -2.426658,0.468115 -0.640132,-0.630271 -0.91818,-1.567747 -0.777772,-2.622381 0.128597,-0.965928 0.311549,-1.499946 1.574817,-4.596778 0.914005,-2.240623 1.362613,-3.831534 1.544337,-5.476688 0.06032,-0.546087 0.05222,-1.911308 -0.01395,-2.353259 -0.210166,-1.4034792 -0.720366,-2.4901122 -1.567312,-3.3380852 -0.411323,-0.411823 -0.766143,-0.6713 -1.195155,-0.874004 -1.637657,-0.773782 -3.526265,-0.375 -5.007232,1.057286 -0.740561,0.71622 -1.158579,1.700289 -1.295751,3.0503792 -0.04354,0.428525 -0.02264,1.090535 0.04693,1.486747 0.169827,0.967152 0.4881,1.705538 1.477869,3.428619 0.608033,1.058524 0.821355,1.441233 0.803329,1.441233 -0.0064,0 -0.113006,-0.04681 -0.236841,-0.10403 -0.774153,-0.35768 -1.788802,-0.364382 -2.655005,-0.01754 -1.4076985,0.563667 -2.3324485,2.07294 -2.1676225,3.53774 0.09436,0.838609 0.400838,1.511827 0.953575,2.094655 0.5422525,0.571773 1.1174135,0.889934 1.8623745,1.030204 0.396776,0.07471 1.132534,0.04689 1.532996,-0.05796 1.347119,-0.352711 2.342956,-1.373192 2.69198,-2.758585 0.130412,-0.517643 0.163069,-0.857565 0.143019,-1.488676 -0.03924,-1.235186 -0.379926,-2.156451 -1.567378,-4.238367 -1.128103,-1.977863 -1.426896,-2.791407 -1.426896,-3.885117 0,-0.6579814 0.131255,-1.2308524 0.412234,-1.7992264 0.41176,-0.832918 1.134227,-1.44798 1.984766,-1.689699 0.325386,-0.09247 0.86044,-0.113956 1.162819,-0.04668 0.783427,0.174295 1.548828,0.721728 2.038909,1.458275 0.277383,0.416874 0.451633,0.903544 0.55128,1.539692 0.07258,0.4633314 0.07199,1.5904374 -0.0012,2.2078094 -0.240983,2.034012 -0.599955,3.248645 -1.77998,6.022841 -0.749731,1.762595 -0.996849,2.428023 -1.181921,3.182672 -0.16494,0.672556 -0.195334,0.921522 -0.194845,1.596155 4.6e-4,0.555986 0.009,0.662453 0.08094,1.003051 0.206149,0.97594 0.619887,1.783371 1.19859,2.339129 0.29838,0.28655 0.517383,0.440531 0.835108,0.587166 0.490037,0.226158 1.012532,0.289327 1.616628,0.195439 z m -7.739827,-5.639914 c -0.662965,-0.108463 -1.20486,-0.491902 -1.467286,-1.038235 -0.289658,-0.603025 -0.285592,-1.236648 0.01179,-1.839147 0.157877,-0.319852 0.428536,-0.617098 0.719789,-0.790492 0.571896,-0.340477 1.346267,-0.372681 1.926723,-0.08013 0.768934,0.387543 1.16425,1.127314 1.122239,2.10009 -0.01423,0.329627 -0.02598,0.392871 -0.100255,0.539662 -0.248601,0.49136 -0.787931,0.910744 -1.363439,1.060217 -0.222358,0.05775 -0.644346,0.08161 -0.849568,0.04804 z"
       style="fill:#ffcc00;stroke-width:0.0303418"
       id="path1" />
  </g>
</svg>