<?xml version="1.0" encoding="UTF-8" standalone="no"?>
<!-- Created with Inkscape (http://www.inkscape.org/) -->

<svg
   width="128"
   height="128"
   viewBox="0 0 33.866666 33.866666"
   version="1.1"
   id="svg1"
   inkscape:version="1.4.2 (f4327f4, 2025-05-13)"
   sodipodi:docname="Ovan.svg"
   xmlns:inkscape="http://www.inkscape.org/namespaces/inkscape"
   xmlns:sodipodi="http://sodipodi.sourceforge.net/DTD/sodipodi-0.dtd"
   xmlns="http://www.w3.org/2000/svg"
   xmlns:svg="http://www.w3.org/2000/svg">
  <sodipodi:namedview
     id="namedview1"
     pagecolor="#ffffff"
     bordercolor="#000000"
     borderopacity="0.25"
     inkscape:showpageshadow="2"
     inkscape:pageopacity="0.0"
     inkscape:pagecheckerboard="0"
     inkscape:deskcolor="#d1d1d1"
     inkscape:document-units="mm"
     inkscape:zoom="2.8756734"
     inkscape:cx="34.600591"
     inkscape:cy="32.861868"
     inkscape:window-width="1920"
     inkscape:window-height="1009"
     inkscape:window-x="1912"
     inkscape:window-y="-8"
     inkscape:window-maximized="1"
     inkscape:current-layer="layer1" />
  <defs
     id="defs1" />
  <g
     inkscape:label="Layer 1"
     inkscape:groupmode="layer"
     id="layer1">
    <circle
       style="fill:#00005e;fill-opacity:1;stroke-width:0.25428"
       id="path2"
       cx="16.933332"
       cy="16.933332"
       r="16.933332" />
    <path
       d="m 16.21639,32.535805 c -3.42436,-0.176211 -6.611183,-1.493014 -9.102143,-3.791557 C 4.908075,26.75841 3.109156,24.270966 2.062831,21.328329 c -0.669527,-1.906935 -0.803525,-3.829029 -0.420658,-5.882358 0.505436,-2.712613 1.839818,-5.249495 3.963499,-7.491295 1.050519,-1.108428 2.378857,-2.115456 3.95758,-2.951011 2.368812,-1.253683 4.93922,-1.727581 7.553942,-1.388863 3.33206,0.430932 6.309395,2.155737 8.520448,4.919747 1.168588,1.460144 1.993077,3.159395 2.502931,5.011854 0.169123,0.614392 0.288289,1.155024 0.40798,1.849187 0.32049,1.858062 0.33433,3.905626 0.0382,5.656519 -0.21043,1.24523 -0.56381,2.44318 -1.13524,3.77452 -1.41165,3.28787 -4.01538,5.92211 -6.95376,7.03923 -1.82119,0.69238 -3.76566,1.0028 -5.61907,0.86962 z m 3.655823,-5.748639 c 0.536968,-0.126442 0.999557,-0.33088 1.579482,-0.697478 1.488056,-0.942738 2.628864,-2.483935 3.197775,-4.341113 0.258957,-0.843777 0.380721,-1.677598 0.380721,-2.532391 0,-0.669896 -0.05739,-1.196942 -0.220138,-2.029803 -0.457816,-2.341498 -2.04639,-4.202353 -4.13794,-4.856997 -1.25595,-0.393113 -2.713217,-0.380295 -4.084347,0.03606 -0.665798,0.19323 -1.29415,0.505007 -1.810574,0.900984 -0.320857,0.245995 -0.73031,0.660601 -0.999548,1.01188 -0.198308,0.258971 -0.245842,0.301322 -0.245842,-0.22819 0,-0.419036 -0.180424,-1.026411 -0.347572,-1.170275 -0.297491,-0.25565 -0.776657,-0.170669 -1.092789,0.192938 -0.354019,0.406935 -0.485966,1.021021 -0.370597,1.724775 0.124508,0.758814 0.291357,1.050519 0.702737,1.213233 0.195155,0.0772 0.307374,0.08182 0.518606,0.02115 0.284705,-0.08173 0.449749,-0.25997 0.697151,-0.75132 0.172922,-0.350325 0.231908,-0.428787 0.358248,-0.477792 0.22332,-0.08643 0.617937,-0.03816 0.814324,0.09995 0.369321,0.260485 0.584347,0.699119 0.825126,1.696147 0.08355,0.345758 0.106571,0.573966 0.07421,0.741029 -0.06346,0.327429 -0.416806,0.690895 -0.718873,0.738096 -0.160107,0.02506 -0.307545,0.01633 -0.638421,-0.03784 -0.630985,-0.102927 -0.835478,-0.08779 -1.221528,0.0902 -0.21855,0.100918 -0.569429,0.368685 -0.923485,0.678759 -0.916893,0.799757 -1.332304,1.831388 -1.233866,3.064506 0.04618,0.578688 0.179374,1.155702 0.40798,1.764502 0.457815,1.217647 1.341108,2.203875 2.277395,2.536965 0.351508,0.125078 0.61214,0.170668 1.077271,0.189998 1.10915,0.04642 1.954316,-0.180299 2.658661,-0.713915 z"
       style="fill:#ffcc00;stroke-width:0.0303418"
       id="path1" />
  </g>
</svg>
