<?xml version="1.0" encoding="UTF-8" standalone="no"?>
<!-- Created with Inkscape (http://www.inkscape.org/) -->

<svg
   width="128"
   height="128"
   viewBox="0 0 33.866666 33.866666"
   version="1.1"
   id="svg1"
   inkscape:version="1.4.2 (f4327f4, 2025-05-13)"
   sodipodi:docname="Ovan.svg"
   xmlns:inkscape="http://www.inkscape.org/namespaces/inkscape"
   xmlns:sodipodi="http://sodipodi.sourceforge.net/DTD/sodipodi-0.dtd"
   xmlns="http://www.w3.org/2000/svg"
   xmlns:svg="http://www.w3.org/2000/svg">
  <sodipodi:namedview
     id="namedview1"
     pagecolor="#ffffff"
     bordercolor="#000000"
     borderopacity="0.25"
     inkscape:showpageshadow="2"
     inkscape:pageopacity="0.0"
     inkscape:pagecheckerboard="0"
     inkscape:deskcolor="#d1d1d1"
     inkscape:document-units="mm"
     inkscape:zoom="4.0668163"
     inkscape:cx="73.398938"
     inkscape:cy="39.957546"
     inkscape:window-width="1920"
     inkscape:window-height="1009"
     inkscape:window-x="1912"
     inkscape:window-y="-8"
     inkscape:window-maximized="1"
     inkscape:current-layer="layer1" />
  <defs
     id="defs1">
    <clipPath
       clipPathUnits="userSpaceOnUse"
       id="clipPath390">
      <path
         d="m 76.478,306.803 c 0,-26.667 21.618,-48.284 48.284,-48.284 v 0 c 26.667,0 48.285,21.617 48.285,48.284 v 0 c 0,26.666 -21.618,48.284 -48.285,48.284 v 0 c -26.666,0 -48.284,-21.618 -48.284,-48.284"
         transform="translate(-118.86381,-315.46241)"
         id="path390" />
    </clipPath>
    <clipPath
       clipPathUnits="userSpaceOnUse"
       id="clipPath392">
      <path
         d="m 76.478,306.803 c 0,-26.667 21.618,-48.284 48.284,-48.284 v 0 c 26.667,0 48.285,21.617 48.285,48.284 v 0 c 0,26.666 -21.618,48.284 -48.285,48.284 v 0 c -26.666,0 -48.284,-21.618 -48.284,-48.284"
         transform="translate(-119.9185,-313.78561)"
         id="path392" />
    </clipPath>
    <clipPath
       clipPathUnits="userSpaceOnUse"
       id="clipPath394">
      <path
         d="m 76.478,306.803 c 0,-26.667 21.618,-48.284 48.284,-48.284 v 0 c 26.667,0 48.285,21.617 48.285,48.284 v 0 c 0,26.666 -21.618,48.284 -48.285,48.284 v 0 c -26.666,0 -48.284,-21.618 -48.284,-48.284"
         transform="translate(-116.16411,-290.7153)"
         id="path394" />
    </clipPath>
    <clipPath
       clipPathUnits="userSpaceOnUse"
       id="clipPath396">
      <path
         d="m 76.478,306.803 c 0,-26.667 21.618,-48.284 48.284,-48.284 v 0 c 26.667,0 48.285,21.617 48.285,48.284 v 0 c 0,26.666 -21.618,48.284 -48.285,48.284 v 0 c -26.666,0 -48.284,-21.618 -48.284,-48.284"
         transform="translate(-108.5869,-309.36571)"
         id="path396" />
    </clipPath>
    <clipPath
       clipPathUnits="userSpaceOnUse"
       id="clipPath398">
      <path
         d="m 76.478,306.803 c 0,-26.667 21.618,-48.284 48.284,-48.284 v 0 c 26.667,0 48.285,21.617 48.285,48.284 v 0 c 0,26.666 -21.618,48.284 -48.285,48.284 v 0 c -26.666,0 -48.284,-21.618 -48.284,-48.284"
         transform="translate(-128.1694,-309.03321)"
         id="path398" />
    </clipPath>
    <clipPath
       clipPathUnits="userSpaceOnUse"
       id="clipPath400">
      <path
         d="m 76.478,306.803 c 0,-26.667 21.618,-48.284 48.284,-48.284 v 0 c 26.667,0 48.285,21.617 48.285,48.284 v 0 c 0,26.666 -21.618,48.284 -48.285,48.284 v 0 c -26.666,0 -48.284,-21.618 -48.284,-48.284"
         transform="translate(-117.4165,-293.48931)"
         id="path400" />
    </clipPath>
    <clipPath
       clipPathUnits="userSpaceOnUse"
       id="clipPath402">
      <path
         d="m 76.478,306.803 c 0,-26.667 21.618,-48.284 48.284,-48.284 v 0 c 26.667,0 48.285,21.617 48.285,48.284 v 0 c 0,26.666 -21.618,48.284 -48.285,48.284 v 0 c -26.666,0 -48.284,-21.618 -48.284,-48.284"
         transform="translate(-138.4678,-271.15671)"
         id="path402" />
    </clipPath>
    <clipPath
       clipPathUnits="userSpaceOnUse"
       id="clipPath406">
      <path
         d="m 76.478,306.803 c 0,-26.667 21.618,-48.284 48.284,-48.284 v 0 c 26.667,0 48.285,21.617 48.285,48.284 v 0 c 0,26.666 -21.618,48.284 -48.285,48.284 v 0 c -26.666,0 -48.284,-21.618 -48.284,-48.284"
         transform="translate(-165.457,-278.56301)"
         id="path406" />
    </clipPath>
    <clipPath
       clipPathUnits="userSpaceOnUse"
       id="clipPath414">
      <path
         d="m 76.478,306.803 c 0,-26.667 21.618,-48.284 48.284,-48.284 v 0 c 26.667,0 48.285,21.617 48.285,48.284 v 0 c 0,26.666 -21.618,48.284 -48.285,48.284 v 0 c -26.666,0 -48.284,-21.618 -48.284,-48.284"
         transform="translate(-133.9819,-269.71631)"
         id="path414" />
    </clipPath>
    <clipPath
       clipPathUnits="userSpaceOnUse"
       id="clipPath416">
      <path
         d="M 0,500 H 500 V 0 H 0 Z"
         transform="translate(-105.4585,-350.73391)"
         id="path416" />
    </clipPath>
    <clipPath
       clipPathUnits="userSpaceOnUse"
       id="clipPath423">
      <path
         d="M 0,500 H 500 V 0 H 0 Z"
         transform="translate(-104.4087,-327.45851)"
         id="path423" />
    </clipPath>
    <clipPath
       clipPathUnits="userSpaceOnUse"
       id="clipPath425">
      <path
         d="M 0,500 H 500 V 0 H 0 Z"
         transform="translate(-108.89991,-329.70951)"
         id="path425" />
    </clipPath>
    <clipPath
       clipPathUnits="userSpaceOnUse"
       id="clipPath427">
      <path
         d="M 0,500 H 500 V 0 H 0 Z"
         transform="translate(-112.3047,-329.54491)"
         id="path427" />
    </clipPath>
    <clipPath
       clipPathUnits="userSpaceOnUse"
       id="clipPath429">
      <path
         d="M 0,500 H 500 V 0 H 0 Z"
         transform="translate(-110.43801,-321.73631)"
         id="path429" />
    </clipPath>
    <clipPath
       clipPathUnits="userSpaceOnUse"
       id="clipPath431">
      <path
         d="M 0,500 H 500 V 0 H 0 Z"
         transform="translate(-111.3301,-319.74411)"
         id="path431" />
    </clipPath>
    <clipPath
       clipPathUnits="userSpaceOnUse"
       id="clipPath433">
      <path
         d="M 0,500 H 500 V 0 H 0 Z"
         transform="translate(-121.8711,-327.65231)"
         id="path433" />
    </clipPath>
    <clipPath
       clipPathUnits="userSpaceOnUse"
       id="clipPath435">
      <path
         d="M 0,500 H 500 V 0 H 0 Z"
         transform="translate(-124.35891,-331.27001)"
         id="path435" />
    </clipPath>
    <clipPath
       clipPathUnits="userSpaceOnUse"
       id="clipPath437">
      <path
         d="M 0,500 H 500 V 0 H 0 Z"
         transform="translate(-132.7974,-328.96481)"
         id="path437" />
    </clipPath>
    <clipPath
       clipPathUnits="userSpaceOnUse"
       id="clipPath439">
      <path
         d="M 0,500 H 500 V 0 H 0 Z"
         transform="translate(-131.5986,-336.48441)"
         id="path439" />
    </clipPath>
    <clipPath
       clipPathUnits="userSpaceOnUse"
       id="clipPath441">
      <path
         d="M 0,500 H 500 V 0 H 0 Z"
         transform="translate(-138.4761,-328.84231)"
         id="path441" />
    </clipPath>
    <clipPath
       clipPathUnits="userSpaceOnUse"
       id="clipPath443">
      <path
         d="M 0,500 H 500 V 0 H 0 Z"
         transform="translate(-139.4229,-327.83591)"
         id="path443" />
    </clipPath>
    <clipPath
       clipPathUnits="userSpaceOnUse"
       id="clipPath445">
      <path
         d="M 0,500 H 500 V 0 H 0 Z"
         transform="translate(-145.2109,-325.59131)"
         id="path445" />
    </clipPath>
    <clipPath
       clipPathUnits="userSpaceOnUse"
       id="clipPath447">
      <path
         d="M 0,500 H 500 V 0 H 0 Z"
         transform="translate(-119.7261,-323.50881)"
         id="path447" />
    </clipPath>
    <clipPath
       clipPathUnits="userSpaceOnUse"
       id="clipPath449">
      <path
         d="M 0,500 H 500 V 0 H 0 Z"
         transform="translate(-124.3594,-322.16461)"
         id="path449" />
    </clipPath>
    <clipPath
       clipPathUnits="userSpaceOnUse"
       id="clipPath451">
      <path
         d="M 0,500 H 500 V 0 H 0 Z"
         transform="translate(-121.3911,-319.22561)"
         id="path451" />
    </clipPath>
    <clipPath
       clipPathUnits="userSpaceOnUse"
       id="clipPath453">
      <path
         d="M 0,500 H 500 V 0 H 0 Z"
         transform="translate(-112.06251,-317.38181)"
         id="path453" />
    </clipPath>
    <clipPath
       clipPathUnits="userSpaceOnUse"
       id="clipPath455">
      <path
         d="M 0,500 H 500 V 0 H 0 Z"
         transform="translate(-100.8579,-325.55571)"
         id="path455" />
    </clipPath>
    <clipPath
       clipPathUnits="userSpaceOnUse"
       id="clipPath457">
      <path
         d="M 0,500 H 500 V 0 H 0 Z"
         transform="translate(-106.5723,-310.51901)"
         id="path457" />
    </clipPath>
    <clipPath
       clipPathUnits="userSpaceOnUse"
       id="clipPath459">
      <path
         d="M 0,500 H 500 V 0 H 0 Z"
         transform="translate(-129.5239,-307.86571)"
         id="path459" />
    </clipPath>
    <clipPath
       clipPathUnits="userSpaceOnUse"
       id="clipPath461">
      <path
         d="M 0,500 H 500 V 0 H 0 Z"
         transform="translate(-111.6294,-295.09181)"
         id="path461" />
    </clipPath>
    <clipPath
       clipPathUnits="userSpaceOnUse"
       id="clipPath463">
      <path
         d="M 0,500 H 500 V 0 H 0 Z"
         transform="translate(-115.23441,-294.1206)"
         id="path463" />
    </clipPath>
    <clipPath
       clipPathUnits="userSpaceOnUse"
       id="clipPath465">
      <path
         d="M 0,500 H 500 V 0 H 0 Z"
         transform="translate(-111.17871,-304.37211)"
         id="path465" />
    </clipPath>
    <clipPath
       clipPathUnits="userSpaceOnUse"
       id="clipPath467">
      <path
         d="M 0,500 H 500 V 0 H 0 Z"
         transform="translate(-122.8218,-304.92381)"
         id="path467" />
    </clipPath>
    <clipPath
       clipPathUnits="userSpaceOnUse"
       id="clipPath469">
      <path
         d="M 0,500 H 500 V 0 H 0 Z"
         transform="translate(-145.68261,-295.64451)"
         id="path469" />
    </clipPath>
    <clipPath
       clipPathUnits="userSpaceOnUse"
       id="clipPath471">
      <path
         d="M 0,500 H 500 V 0 H 0 Z"
         transform="translate(-147.8613,-296.45801)"
         id="path471" />
    </clipPath>
    <clipPath
       clipPathUnits="userSpaceOnUse"
       id="clipPath473">
      <path
         d="M 0,500 H 500 V 0 H 0 Z"
         transform="translate(-155.3359,-293.63961)"
         id="path473" />
    </clipPath>
    <clipPath
       clipPathUnits="userSpaceOnUse"
       id="clipPath475">
      <path
         d="M 0,500 H 500 V 0 H 0 Z"
         transform="translate(-155.2983,-295.12301)"
         id="path475" />
    </clipPath>
    <clipPath
       clipPathUnits="userSpaceOnUse"
       id="clipPath477">
      <path
         d="M 0,500 H 500 V 0 H 0 Z"
         transform="translate(-152.1021,-295.1724)"
         id="path477" />
    </clipPath>
    <clipPath
       clipPathUnits="userSpaceOnUse"
       id="clipPath479">
      <path
         d="M 0,500 H 500 V 0 H 0 Z"
         transform="translate(-137.0386,-300.36521)"
         id="path479" />
    </clipPath>
    <clipPath
       clipPathUnits="userSpaceOnUse"
       id="clipPath481">
      <path
         d="M 0,500 H 500 V 0 H 0 Z"
         transform="translate(-139.50291,-296.26271)"
         id="path481" />
    </clipPath>
    <clipPath
       clipPathUnits="userSpaceOnUse"
       id="clipPath483">
      <path
         d="M 0,500 H 500 V 0 H 0 Z"
         transform="translate(-122.6758,-285.54351)"
         id="path483" />
    </clipPath>
    <clipPath
       clipPathUnits="userSpaceOnUse"
       id="clipPath485">
      <path
         d="M 0,500 H 500 V 0 H 0 Z"
         transform="translate(-124.31151,-285.38231)"
         id="path485" />
    </clipPath>
    <clipPath
       clipPathUnits="userSpaceOnUse"
       id="clipPath487">
      <path
         d="M 0,500 H 500 V 0 H 0 Z"
         transform="translate(-128.72751,-282.48441)"
         id="path487" />
    </clipPath>
    <clipPath
       clipPathUnits="userSpaceOnUse"
       id="clipPath489">
      <path
         d="M 0,500 H 500 V 0 H 0 Z"
         transform="translate(-128.3184,-279.64791)"
         id="path489" />
    </clipPath>
  </defs>
  <g
     inkscape:label="Layer 1"
     inkscape:groupmode="layer"
     id="layer1">
    <g
       id="g36"
       transform="matrix(0.22732,0,0,0.22732,-20.807205,-41.623572)">
      <path
         id="path389"
         d="m 0,0 c 0.167,4.552 -0.542,9.301 -3.09,13.077 -2.548,3.776 -7.232,6.333 -11.691,5.403 -3.645,-0.76 -6.675,-3.891 -7.315,-7.558 -0.209,-1.202 -0.15,-2.538 0.595,-3.504 1.172,-1.52 3.43,-1.501 5.343,-1.338 -1.037,-0.052 -1.949,0.82 -2.255,1.813 -0.727,2.357 1.606,4.869 4.072,4.917 2.465,0.047 4.66,-1.77 5.799,-3.957 1.137,-2.188 1.426,-4.704 1.695,-7.155 0.208,-1.891 0.416,-3.781 0.624,-5.673"
         style="fill:#111111;fill-opacity:1;fill-rule:nonzero;stroke:none"
         transform="matrix(1.3333333,0,0,-1.3333333,158.48507,246.05013)"
         clip-path="url(#clipPath390)" />
      <path
         id="path391"
         d="M 0,0 C -1.327,6.769 1.212,14.226 6.574,18.566 21.756,29.935 32.992,12.184 18.263,7.369 25.533,16.622 16.375,18.227 10.22,12.171 6.573,8.949 4.595,3.933 5.059,-0.911"
         style="fill:#111111;fill-opacity:1;fill-rule:nonzero;stroke:none"
         transform="matrix(1.3333333,0,0,-1.3333333,159.89133,248.28587)"
         clip-path="url(#clipPath392)" />
      <path
         id="path393"
         d="m 0,0 c -1.678,-0.118 -3.448,0.23 -4.757,1.286 -1.309,1.056 -2.038,2.908 -1.482,4.496 0.219,0.625 0.614,1.174 0.863,1.788 0.948,2.334 -0.438,5.04 -2.384,6.64 -0.462,0.38 -0.961,0.727 -1.332,1.195 -0.533,0.674 -0.757,1.552 -0.783,2.41 -0.072,2.423 1.363,4.721 3.322,6.148 1.96,1.428 4.381,2.086 6.785,2.393 1.227,0.158 2.473,0.23 3.702,0.092 3.891,-0.437 7.442,-3.147 8.891,-6.784 0.327,-0.822 0.556,-1.701 0.504,-2.584 C 13.275,16.182 12.937,15.329 12.603,14.493 11.932,12.817 11.261,11.142 10.59,9.465 10.032,8.073 9.456,6.65 8.464,5.524 7.808,4.78 6.993,4.195 6.175,3.632 4.677,2.603 3.141,1.627 1.572,0.708"
         style="fill:#111111;fill-opacity:1;fill-rule:nonzero;stroke:none"
         transform="matrix(1.3333333,0,0,-1.3333333,154.88547,279.04627)"
         clip-path="url(#clipPath394)" />
      <path
         id="path395"
         d="M 0,0 C -1.735,-0.151 -3.492,0.54 -4.783,1.708 -6.075,2.877 -6.919,4.49 -7.323,6.185 -4.252,6.604 -1.003,5.255 0.869,2.786 1.194,2.358 1.479,1.901 1.816,1.482"
         style="fill:#111111;fill-opacity:1;fill-rule:nonzero;stroke:none"
         transform="matrix(1.3333333,0,0,-1.3333333,144.78253,254.17907)"
         clip-path="url(#clipPath396)" />
      <path
         id="path397"
         d="M 0,0 C 2.229,4.641 7.109,7.891 12.251,8.158 10.617,3.01 5.947,-1.044 0.621,-1.94"
         style="fill:#111111;fill-opacity:1;fill-rule:nonzero;stroke:none"
         transform="matrix(1.3333333,0,0,-1.3333333,170.89253,254.6224)"
         clip-path="url(#clipPath398)" />
      <path
         id="path399"
         d="m 0,0 c 2.622,-10.066 9.678,-18.3 16.662,-26.009 3.348,-3.696 6.821,-7.434 11.234,-9.757 3.506,-1.844 7.442,-2.704 11.356,-3.311 8.253,-1.28 16.666,-1.521 24.978,-0.716 3.624,0.351 7.274,0.912 10.624,2.337 3.141,1.337 5.925,3.395 8.48,5.658 3.886,3.441 7.368,7.486 9.347,12.284 1.978,4.798 2.314,10.433 0.083,15.119 C 89.473,2.52 81.396,5.969 73.755,6.486 66.115,7.003 58.528,5.21 50.897,4.578 39.717,3.652 28.335,5.258 17.848,9.241 c -2.698,1.025 -5.515,2.358 -6.947,4.863"
         style="fill:#111111;fill-opacity:1;fill-rule:nonzero;stroke:none"
         transform="matrix(1.3333333,0,0,-1.3333333,156.55533,275.3476)"
         clip-path="url(#clipPath400)" />
      <path
         id="path401"
         d="m 0,0 c 0.849,-3.537 1.698,-7.074 2.547,-10.61 0.537,-2.239 1.076,-4.482 1.83,-6.657 0.835,-2.407 1.952,-4.853 1.668,-7.385 -0.201,-1.8 -1.109,-3.537 -0.872,-5.333 0.099,-0.747 0.394,-1.455 0.723,-2.134 1.17,-2.419 2.857,-4.834 2.592,-7.508 -0.148,-1.496 -0.901,-2.851 -1.452,-4.249 -0.932,-2.364 -1.302,-4.947 -1.071,-7.477 1.792,-0.189 3.584,-0.377 5.376,-0.565 0.491,-0.051 1.076,-0.064 1.37,0.332 0.175,0.235 0.188,0.548 0.195,0.84 0.052,2.18 0.102,4.359 0.153,6.538 0.064,2.712 0.127,5.429 -0.065,8.136 -0.105,1.487 -0.287,2.969 -0.327,4.458 -0.119,4.369 0.981,8.665 1.789,12.961 0.807,4.295 1.315,8.799 0.046,12.981"
         style="fill:#111111;fill-opacity:1;fill-rule:nonzero;stroke:none"
         transform="matrix(1.3333333,0,0,-1.3333333,184.62373,305.1244)"
         clip-path="url(#clipPath402)" />
      <path
         id="path405"
         d="m 0,0 c 0.822,-7.277 1.742,-14.839 5.676,-21.015 1.118,-1.756 2.457,-3.358 3.792,-4.954 3.405,-4.072 6.809,-8.144 10.214,-12.215 1.279,-1.53 2.589,-3.116 3.164,-5.025 0.815,-2.708 0.03,-5.61 -0.753,-8.327 -0.606,-2.099 -1.286,-4.321 -2.934,-5.756 -0.627,-0.547 -1.383,-0.966 -1.867,-1.643 2.312,-0.048 4.625,0.025 6.929,0.22 0.917,3.87 2.183,7.657 3.779,11.299 1.082,2.47 2.324,4.903 2.871,7.543 0.36,1.742 0.379,3.661 -0.542,5.182 -0.499,0.823 -1.236,1.469 -1.946,2.118 -2.333,2.129 -4.507,4.432 -6.497,6.885 -0.949,1.17 -1.873,2.402 -2.359,3.829 -0.71,2.088 -0.413,4.389 0.191,6.51 0.605,2.121 1.506,4.154 2.014,6.299 0.681,2.866 0.639,5.902 -0.122,8.748"
         style="fill:#111111;fill-opacity:1;fill-rule:nonzero;stroke:none"
         transform="matrix(1.3333333,0,0,-1.3333333,220.60933,295.24933)"
         clip-path="url(#clipPath406)" />
      <path
         id="path413"
         d="m 0,0 c -1.576,-3.85 -3.153,-7.704 -4.983,-11.439 -0.787,-1.604 -1.624,-3.201 -2.094,-4.924 -0.47,-1.723 -0.547,-3.618 0.176,-5.252 0.371,-0.839 0.936,-1.576 1.371,-2.384 1.317,-2.438 1.407,-5.41 2.817,-7.794 1.126,-1.905 3.03,-3.277 5.115,-4.015 2.085,-0.738 4.345,-0.88 6.549,-0.7 1.598,0.13 3.195,0.428 4.669,1.059 0.165,0.071 0.342,0.158 0.415,0.324 0.057,0.127 0.038,0.274 0.017,0.412 -0.315,2.086 -0.769,4.15 -1.358,6.174 -1.392,-0.527 -2.85,-0.883 -4.328,-1.059 -1.591,-0.19 -3.363,-0.113 -4.565,0.944 -1.193,1.049 -1.494,2.748 -2.074,4.227 -0.654,1.668 -1.741,3.193 -2.007,4.964 -0.292,1.942 0.466,3.919 1.605,5.518 1.14,1.6 2.642,2.897 4.072,4.244 3.777,3.559 7.156,7.61 9.473,12.254"
         style="fill:#111111;fill-opacity:1;fill-rule:nonzero;stroke:none"
         transform="matrix(1.3333333,0,0,-1.3333333,178.64253,307.04493)"
         clip-path="url(#clipPath414)" />
      <path
         id="path415"
         d="m 0,0 c 5.966,2.656 12.573,4.131 19.525,4.131 26.544,0 48.063,-21.518 48.063,-48.062 0,-26.545 -21.519,-48.063 -48.063,-48.063 -26.545,0 -48.063,21.518 -48.063,48.063 0,4.59 0.643,9.03 1.846,13.234"
         style="fill:none;stroke:#af9269;stroke-width:1;stroke-linecap:butt;stroke-linejoin:miter;stroke-miterlimit:10;stroke-dasharray:none;stroke-opacity:1"
         transform="matrix(1.3333333,0,0,-1.3333333,140.61133,199.02147)"
         clip-path="url(#clipPath416)" />
      <path
         id="path417"
         d="m 0.16196413,0.00303419 2.27192667,-9.8076e-4 0.054185,-0.50112155 -0.860543,-0.21499796 c -0.058092,-0.007652 -0.0664,-0.0702097 -0.067681,-0.0963823 -0.00128,-0.0261726 0.02105,-0.1059711 0.038914,-0.16980989 L 2.2132514,-2.6841364 5.3297289,-2.689713 5.85725,-1.1309149 c 0.032576,0.1295824 0.04535,0.17618078 0.049192,0.25469861 -0.011461,0.19470183 -0.2955178,0.28730698 -0.8515135,0.39846559 L 5.1360727,0.00100782 7.9327322,5.863345e-4 7.9767044,-0.49478843 C 7.4628086,-0.59557201 7.3223568,-0.67789941 7.279568,-0.801735 L 4.5187834,-8.4322863 3.5274097,-8.4257533 0.84741249,-1.001211 C 0.70702551,-0.65328306 0.68213357,-0.62582979 0.07507334,-0.48593724 Z M 2.4384947,-3.3352986 3.736361,-7.0507552 l 0.1366098,0.00381 c 0.00256,0.052345 0.020458,0.2036341 0.074741,0.3478955 l 1.1667925,3.3639866 z m 0,0"
         style="fill:#af9269;fill-opacity:1;fill-rule:nonzero;stroke:none"
         aria-label="A"
         transform="matrix(0.65385679,-1.1620022,1.1620022,0.65385679,108.13667,230.862)" />
      <path
         id="path418"
         d="M 0.48536766,0.0027654 3.6916121,-0.00366098 3.7402429,-0.46544203 2.6478682,-0.61170744 c -0.2297291,-0.03252 -0.2274808,-0.10752292 -0.2323504,-0.25048559 l -0.00111,-2.71171957 c 0.0042,-0.3843806 0.03447,-0.5391068 0.1959407,-0.7338438 0.189569,-0.2158666 0.6390643,-0.612533 1.0492202,-0.6130553 0.1335966,0.00217 0.2133199,0.030197 0.2602993,0.1121687 0.070432,0.09366 0.1410875,0.3631019 0.2007257,1.1833391 l 0.5858624,-0.05934 C 4.8602133,-4.4160901 4.8896643,-5.215347 4.8937878,-5.6583213 4.5818634,-5.819643 4.3029066,-5.8591316 4.1036731,-5.8705967 c -0.6281215,0.00314 -1.2698071,0.397711 -1.580687,1.0567011 l -0.1659674,0.3447429 -0.079723,-0.028023 c 0.011614,-0.082046 0.04406,-0.3703689 0.046159,-0.5625593 -0.00285,-0.3937466 -0.1837942,-0.7708603 -0.2845724,-0.7683882 l -1.6287109,0.1544178 -0.069835,0.3750892 c 0.9658211,0.1534578 0.9918202,0.3245186 0.9969882,0.701856 l 0.0044,3.4570285 c -0.00892,0.35860539 -0.015738,0.52502046 -0.93195819,0.67149974 z m 0,0"
         style="fill:#af9269;fill-opacity:1;fill-rule:nonzero;stroke:none"
         aria-label="r"
         transform="matrix(0.80135758,-1.0656471,1.0656471,0.80135758,113.2956,221.90173)" />
      <path
         id="path419"
         d="m 1.7319384,-7.1604992 c 0.4311731,0.00578 0.697464,-0.3289057 0.7006634,-0.7104271 5.057e-4,-0.4895294 -0.3140725,-0.6635042 -0.6955939,-0.6667036 -0.4398778,0.00207 -0.6879007,0.3045092 -0.6902415,0.6694801 -0.00835,0.4808247 0.3114965,0.7131558 0.685172,0.7076506 z M 0.56397955,-0.00222541 3.1858367,0.00104393 3.2351353,-0.46935882 2.6453262,-0.61612571 C 2.4318864,-0.66038985 2.4179119,-0.71090021 2.4177943,-0.86855983 L 2.4151227,-5.6148988 2.2878704,-5.7210717 c -0.2987687,0.00109 -0.7900154,0.03369 -1.80034028,0.1555193 l -0.0615557,0.3867913 c 0.68212518,0.1266639 0.91738538,0.230143 0.90719868,0.5864093 l 0.00431,3.4354104 c -0.00234,0.36497085 -0.00136,0.5060799 -0.84875971,0.6861483 z m 0,0"
         style="fill:#af9269;fill-opacity:1;fill-rule:nonzero;stroke:none"
         aria-label="i"
         transform="matrix(0.89269245,-0.99039284,0.99039284,0.89269245,117.3464,216.57227)" />
      <path
         id="path420"
         d="M 0.4160384,-2.7697977 C 0.41253215,-1.2436623 1.2394489,0.10729071 2.9477309,0.10329677 3.9678006,0.10276083 4.8853032,-0.37457064 5.327374,-0.7162174 L 5.0705667,-1.112021 C 4.5502313,-0.85837926 3.9926873,-0.70272658 3.4369454,-0.70472326 2.4168756,-0.70418733 1.5426204,-1.1906745 1.5458831,-2.9241356 L 5.0377409,-3.1176793 5.3348736,-3.3538368 C 5.290749,-4.8282503 4.6841129,-5.86483 3.1997154,-5.8617615 1.482813,-5.865706 0.41204446,-4.4780798 0.4160384,-2.7697977 Z m 1.1570205,-0.7028232 c 0.1074371,-1.0162223 0.4013553,-1.7332664 1.3883075,-1.7324387 0.9869522,8.278e-4 1.2322172,0.7205504 1.222282,1.2849127 0.00477,0.1159114 -0.015633,0.2245663 -0.1149861,0.2286573 z m 0,0"
         style="fill:#af9269;fill-opacity:1;fill-rule:nonzero;stroke:none"
         aria-label="e"
         transform="matrix(0.98079966,-0.90322191,0.90322191,0.98079966,120.45307,213.01427)" />
      <path
         id="path421"
         d="M 0.6781652,-0.16847323 C 0.92739591,-0.07206169 1.6999525,0.10446676 2.3866676,0.1012194 3.8445081,0.0987251 4.6561145,-0.68603378 4.6529591,-1.6493213 4.6597091,-2.5470623 3.9274531,-2.9559577 3.1559426,-3.291875 2.4102507,-3.6233148 1.6277851,-3.8653898 1.6250148,-4.493513 c 0.00257,-0.2601858 0.1347083,-0.4393926 0.2464604,-0.5317117 0.1326161,-0.120615 0.4156662,-0.1885468 0.8094222,-0.1894089 0.2929591,-0.00239 0.5839179,0.037435 0.7442608,0.1556644 0.101274,0.060115 0.1563425,0.2026401 0.2240903,1.038835 l 0.5526678,-0.058408 c 0.1008889,-0.2750493 0.1641422,-0.8544897 0.1637571,-1.189654 0.00152,-0.100797 -0.00391,-0.192162 -0.00239,-0.292959 -0.2939132,-0.1147984 -0.806284,-0.2887576 -1.4696577,-0.2974194 -1.3242703,-9.37e-4 -2.21628669,0.6954111 -2.20817682,1.6914718 -0.009231,0.8813544 0.69473292,1.2693858 1.40765162,1.6057801 0.7620786,0.3289626 1.5306348,0.5899014 1.5314049,1.2602298 -0.00752,0.2274126 -0.085548,0.43196084 -0.26237,0.59278079 C 3.2200921,-0.59465163 2.9956339,-0.52719693 2.6440831,-0.52433463 2.2081218,-0.52547271 1.8322756,-0.62788484 1.6485914,-0.73420537 1.5354081,-0.81766163 1.5210217,-0.85738957 1.3952512,-1.911088 l -0.62069155,0.05193 c -0.0701159,0.3122999 -0.12041389,0.7556929 -0.12155198,1.1916541 -0.001046,0.1593888 3.8506e-4,0.33516423 0.0251575,0.49903067 z m 0,0"
         style="fill:#af9269;fill-opacity:1;fill-rule:nonzero;stroke:none"
         aria-label="s"
         transform="matrix(1.0731446,-0.79128904,0.79128904,1.0731446,125.85867,208.03773)" />
      <path
         id="path422"
         d="M 0,0 C 0.134,0.296 0.02,0.64 0.01,0.958 -0.003,1.444 0.03,1.917 0.102,2.397 0.119,2.512 -0.049,2.615 -0.107,2.485 -0.305,2.037 -0.42,1.537 -0.392,1.045 -0.372,0.69 -0.347,0.207 -0.032,-0.008 -0.022,-0.015 -0.005,-0.011 0,0"
         style="fill:#f9edcd;fill-opacity:1;fill-rule:nonzero;stroke:none"
         transform="matrix(1.3333333,0,0,-1.3333333,139.2116,230.05533)"
         clip-path="url(#clipPath423)" />
      <path
         id="path424"
         d="M 0,0 C -0.063,0.944 1.054,2 1.668,2.619 2.325,3.28 3.094,3.778 3.841,4.327 3.914,4.381 3.875,4.525 3.773,4.488 2.669,4.086 1.672,3.263 0.91,2.383 0.428,1.826 -0.656,0.722 -0.202,-0.055 -0.15,-0.144 0.007,-0.11 0,0"
         style="fill:#f9edcd;fill-opacity:1;fill-rule:nonzero;stroke:none"
         transform="matrix(1.3333333,0,0,-1.3333333,145.19987,227.054)"
         clip-path="url(#clipPath425)" />
      <path
         id="path426"
         d="M 0,0 C 0.709,1.29 1.791,1.935 3.062,2.567 3.149,2.61 3.112,2.771 3.01,2.758 1.566,2.583 0.365,1.401 -0.278,0.163 -0.374,-0.021 -0.101,-0.182 0,0"
         style="fill:#f9edcd;fill-opacity:1;fill-rule:nonzero;stroke:none"
         transform="matrix(1.3333333,0,0,-1.3333333,149.7396,227.27347)"
         clip-path="url(#clipPath427)" />
      <path
         id="path428"
         d="M 0,0 C 0.273,0.477 0.374,1.009 0.673,1.486 1.055,2.093 1.56,2.668 2.086,3.156 3.378,4.355 4.94,4.958 6.7,5.02 6.807,5.023 6.84,5.192 6.726,5.215 4.919,5.588 3.219,4.862 1.881,3.648 1.128,2.965 -0.787,1.141 -0.051,0 -0.039,-0.018 -0.011,-0.02 0,0"
         style="fill:#f9edcd;fill-opacity:1;fill-rule:nonzero;stroke:none"
         transform="matrix(1.3333333,0,0,-1.3333333,147.25067,237.68493)"
         clip-path="url(#clipPath429)" />
      <path
         id="path430"
         d="M 0,0 C 0.29,0.436 0.612,0.844 0.98,1.218 1.316,1.559 1.71,1.829 2.053,2.16 2.158,2.261 2.024,2.425 1.9,2.357 1.026,1.884 0.313,0.948 -0.212,0.124 -0.298,-0.01 -0.087,-0.131 0,0"
         style="fill:#f9edcd;fill-opacity:1;fill-rule:nonzero;stroke:none"
         transform="matrix(1.3333333,0,0,-1.3333333,148.44013,240.3412)"
         clip-path="url(#clipPath431)" />
      <path
         id="path432"
         d="M 0,0 C 0.396,-0.143 0.842,-0.156 1.253,-0.258 1.674,-0.362 2.061,-0.55 2.479,-0.66 2.609,-0.694 2.732,-0.517 2.619,-0.42 2.007,0.097 0.773,0.447 0,0.152 -0.074,0.125 -0.076,0.027 0,0"
         style="fill:#f9edcd;fill-opacity:1;fill-rule:nonzero;stroke:none"
         transform="matrix(1.3333333,0,0,-1.3333333,162.4948,229.79693)"
         clip-path="url(#clipPath433)" />
      <path
         id="path434"
         d="M 0,0 C 1.391,-0.491 2.688,-1.645 3.755,-2.636 4.87,-3.672 5.578,-4.855 6.162,-6.248 6.2,-6.338 6.364,-6.342 6.353,-6.223 6.205,-4.734 5.248,-3.52 4.19,-2.518 3.034,-1.422 1.612,-0.185 0.094,0.339 -0.121,0.413 -0.212,0.075 0,0"
         style="fill:#f9edcd;fill-opacity:1;fill-rule:nonzero;stroke:none"
         transform="matrix(1.3333333,0,0,-1.3333333,165.81187,224.97333)"
         clip-path="url(#clipPath435)" />
      <path
         id="path436"
         d="M 0,0 C 0.243,-0.348 0.448,-0.72 0.627,-1.104 0.806,-1.488 0.906,-1.912 1.109,-2.281 1.15,-2.356 1.25,-2.302 1.238,-2.227 1.104,-1.418 0.492,-0.635 0.025,0.015 0.015,0.03 -0.011,0.016 0,0"
         style="fill:#f9edcd;fill-opacity:1;fill-rule:nonzero;stroke:none"
         transform="matrix(1.3333333,0,0,-1.3333333,177.0632,228.04693)"
         clip-path="url(#clipPath437)" />
      <path
         id="path438"
         d="M 0,0 C 2.094,-0.912 3.206,-2.669 3.808,-4.796 3.839,-4.906 4.012,-4.887 4.01,-4.769 3.969,-2.484 2.229,-0.508 0.204,0.349 -0.032,0.449 -0.239,0.104 0,0"
         style="fill:#f9edcd;fill-opacity:1;fill-rule:nonzero;stroke:none"
         transform="matrix(1.3333333,0,0,-1.3333333,175.4648,218.0208)"
         clip-path="url(#clipPath439)" />
      <path
         id="path440"
         d="M 0,0 C 0.343,1.293 0.541,3.003 -0.176,4.205 -0.229,4.294 -0.384,4.261 -0.378,4.15 -0.345,3.512 -0.167,2.896 -0.135,2.255 -0.1,1.523 -0.189,0.812 -0.367,0.101 -0.427,-0.136 -0.063,-0.237 0,0"
         style="fill:#f9edcd;fill-opacity:1;fill-rule:nonzero;stroke:none"
         transform="matrix(1.3333333,0,0,-1.3333333,184.6348,228.21027)"
         clip-path="url(#clipPath441)" />
      <path
         id="path442"
         d="M 0,0 C 1.323,0.619 2.511,2.066 2.642,3.544 2.653,3.676 2.439,3.738 2.385,3.614 2.108,2.974 1.873,2.315 1.477,1.735 1.04,1.096 0.492,0.618 -0.113,0.147 -0.203,0.077 -0.089,-0.042 0,0"
         style="fill:#f9edcd;fill-opacity:1;fill-rule:nonzero;stroke:none"
         transform="matrix(1.3333333,0,0,-1.3333333,185.8972,229.55213)"
         clip-path="url(#clipPath443)" />
      <path
         id="path444"
         d="m 0,0 c -1.349,0.918 -3.116,1.355 -4.685,0.748 -0.13,-0.051 -0.13,-0.29 0.037,-0.27 1.61,0.192 3.064,0.113 4.494,-0.741 C 0.017,-0.365 0.161,-0.109 0,0"
         style="fill:#f9edcd;fill-opacity:1;fill-rule:nonzero;stroke:none"
         transform="matrix(1.3333333,0,0,-1.3333333,193.61453,232.54493)"
         clip-path="url(#clipPath445)" />
      <path
         id="path446"
         d="m 0,0 c 0.972,0.071 1.754,-0.21 2.655,-0.516 0.077,-0.026 0.151,0.09 0.083,0.142 C 1.981,0.212 0.927,0.336 0,0.252 -0.16,0.238 -0.163,-0.012 0,0"
         style="fill:#f9edcd;fill-opacity:1;fill-rule:nonzero;stroke:none"
         transform="matrix(1.3333333,0,0,-1.3333333,159.6348,235.3216)"
         clip-path="url(#clipPath447)" />
      <path
         id="path448"
         d="M 0,0 C 0.488,-0.278 0.921,-0.615 1.32,-1.011 1.684,-1.373 1.959,-1.803 2.304,-2.178 2.375,-2.255 2.534,-2.174 2.49,-2.07 2.069,-1.069 1.005,-0.346 0.062,0.106 -0.009,0.14 -0.07,0.04 0,0"
         style="fill:#f9edcd;fill-opacity:1;fill-rule:nonzero;stroke:none"
         transform="matrix(1.3333333,0,0,-1.3333333,165.81253,237.11387)"
         clip-path="url(#clipPath449)" />
      <path
         id="path450"
         d="m 0,0 c 2.385,0.152 3.87,-1.248 5.916,-2.092 0.097,-0.04 0.162,0.101 0.097,0.166 C 4.512,-0.407 2.125,0.524 0,0.27 -0.167,0.25 -0.176,-0.011 0,0"
         style="fill:#f9edcd;fill-opacity:1;fill-rule:nonzero;stroke:none"
         transform="matrix(1.3333333,0,0,-1.3333333,161.8548,241.03253)"
         clip-path="url(#clipPath451)" />
      <path
         id="path452"
         d="M 0,0 C 0.586,0.697 1.3,1.167 2.049,1.666 2.139,1.725 2.085,1.884 1.972,1.848 1.094,1.562 0.368,0.909 -0.203,0.203 -0.318,0.062 -0.12,-0.143 0,0"
         style="fill:#f9edcd;fill-opacity:1;fill-rule:nonzero;stroke:none"
         transform="matrix(1.3333333,0,0,-1.3333333,149.41667,243.49093)"
         clip-path="url(#clipPath453)" />
      <path
         id="path454"
         d="M 0,0 C -0.388,0.61 -0.845,1.172 -1.239,1.779 -1.634,2.386 -1.94,3.061 -2.375,3.64 -2.465,3.761 -2.663,3.694 -2.626,3.533 -2.326,2.2 -1.252,0.701 -0.202,-0.156 -0.097,-0.242 0.084,-0.133 0,0"
         style="fill:#f9edcd;fill-opacity:1;fill-rule:nonzero;stroke:none"
         transform="matrix(1.3333333,0,0,-1.3333333,134.4772,232.5924)"
         clip-path="url(#clipPath455)" />
      <path
         id="path456"
         d="M 0,0 C -0.562,0.879 -1.345,1.651 -2.076,2.391 -2.814,3.137 -3.56,3.911 -4.464,4.456 -4.571,4.52 -4.656,4.38 -4.588,4.294 -3.942,3.479 -3.135,2.801 -2.407,2.061 -1.682,1.324 -1.013,0.499 -0.239,-0.185 -0.116,-0.294 0.098,-0.153 0,0"
         style="fill:#f9edcd;fill-opacity:1;fill-rule:nonzero;stroke:none"
         transform="matrix(1.3333333,0,0,-1.3333333,142.0964,252.64133)"
         clip-path="url(#clipPath457)" />
      <path
         id="path458"
         d="M 0,0 C 3.228,1.946 5.001,5.378 8.539,6.964 8.707,7.039 8.587,7.31 8.415,7.258 4.824,6.186 2.715,2.361 -0.092,0.119 -0.161,0.065 -0.073,-0.044 0,0"
         style="fill:#f9edcd;fill-opacity:1;fill-rule:nonzero;stroke:none"
         transform="matrix(1.3333333,0,0,-1.3333333,172.69853,256.17907)"
         clip-path="url(#clipPath459)" />
      <path
         id="path460"
         d="M 0,0 C 0.206,-0.539 0.491,-1.135 1.014,-1.427 1.133,-1.493 1.293,-1.383 1.25,-1.245 1.089,-0.723 0.687,-0.279 0.364,0.154 0.242,0.317 -0.088,0.23 0,0"
         style="fill:#f9edcd;fill-opacity:1;fill-rule:nonzero;stroke:none"
         transform="matrix(1.3333333,0,0,-1.3333333,148.8392,273.21093)"
         clip-path="url(#clipPath461)" />
      <path
         id="path462"
         d="M 0,0 C 0.231,0.406 0.465,0.851 0.639,1.285 0.726,1.503 0.401,1.672 0.252,1.51 -0.088,1.14 -0.308,0.595 -0.366,0.099 -0.389,-0.101 -0.09,-0.158 0,0"
         style="fill:#f9edcd;fill-opacity:1;fill-rule:nonzero;stroke:none"
         transform="matrix(1.3333333,0,0,-1.3333333,153.64587,274.50587)"
         clip-path="url(#clipPath463)" />
      <path
         id="path464"
         d="m 0,0 c -1.069,0.557 -2.183,1.153 -2.854,2.155 -0.18,0.269 -0.29,0.7 -0.009,0.863 0.124,0.072 0.278,0.054 0.419,0.031 C -1.669,2.925 -0.883,2.696 -0.289,2.184 0.305,1.671 0.661,0.821 0.406,0.08"
         style="fill:#f9edcd;fill-opacity:1;fill-rule:nonzero;stroke:none"
         transform="matrix(1.3333333,0,0,-1.3333333,148.23827,260.8372)"
         clip-path="url(#clipPath465)" />
      <path
         id="path466"
         d="m 0,0 c -0.396,-0.202 -0.804,-0.378 -1.223,-0.527 -0.476,-0.169 -0.973,-0.304 -1.478,-0.292 -0.103,0.002 -0.216,0.016 -0.284,0.092 -0.049,0.055 -0.065,0.133 -0.065,0.207 -0.001,0.242 0.13,0.461 0.259,0.666 0.496,0.781 1.064,1.58 1.906,1.965 0.537,0.245 1.142,0.3 1.733,0.295 C 1.127,2.404 1.417,2.386 1.662,2.252 1.906,2.118 2.092,1.836 2.028,1.564 2.001,1.445 1.93,1.34 1.854,1.244 1.23,0.455 0.234,0.075 -0.711,-0.269"
         style="fill:#f9edcd;fill-opacity:1;fill-rule:nonzero;stroke:none"
         transform="matrix(1.3333333,0,0,-1.3333333,163.7624,260.1016)"
         clip-path="url(#clipPath467)" />
      <path
         id="path468"
         d="M 0,0 C 0.673,-0.162 1.353,-0.37 2.044,-0.435 2.164,-0.446 2.168,-0.276 2.07,-0.239 1.431,0.002 0.737,0.112 0.072,0.26 -0.097,0.297 -0.169,0.041 0,0"
         style="fill:#f9edcd;fill-opacity:1;fill-rule:nonzero;stroke:none"
         transform="matrix(1.3333333,0,0,-1.3333333,194.24347,272.474)"
         clip-path="url(#clipPath469)" />
      <path
         id="path470"
         d="M 0,0 C 0.296,-0.175 0.636,-0.285 0.981,-0.261 1.183,-0.246 1.254,0.002 1.083,0.116 0.796,0.308 0.445,0.382 0.102,0.376 -0.098,0.374 -0.174,0.103 0,0"
         style="fill:#f9edcd;fill-opacity:1;fill-rule:nonzero;stroke:none"
         transform="matrix(1.3333333,0,0,-1.3333333,197.1484,271.38933)"
         clip-path="url(#clipPath471)" />
      <path
         id="path472"
         d="m 0,0 c 0.755,-0.221 1.65,-0.384 2.432,-0.25 0.157,0.026 0.151,0.278 0,0.311 C 1.666,0.223 0.796,0.172 0.017,0.126 -0.054,0.122 -0.072,0.021 0,0"
         style="fill:#f9edcd;fill-opacity:1;fill-rule:nonzero;stroke:none"
         transform="matrix(1.3333333,0,0,-1.3333333,207.11453,275.1472)"
         clip-path="url(#clipPath473)" />
      <path
         id="path474"
         d="M 0,0 C 0.457,-0.087 0.962,-0.192 1.425,-0.161 1.648,-0.146 1.705,0.168 1.479,0.236 1.032,0.37 0.519,0.381 0.054,0.397 -0.17,0.405 -0.227,0.043 0,0"
         style="fill:#f9edcd;fill-opacity:1;fill-rule:nonzero;stroke:none"
         transform="matrix(1.3333333,0,0,-1.3333333,207.0644,273.16933)"
         clip-path="url(#clipPath475)" />
      <path
         id="path476"
         d="M 0,0 C 0.253,0.022 0.48,-0.02 0.725,-0.086 0.845,-0.119 0.902,0.041 0.806,0.107 0.537,0.292 0.28,0.311 -0.034,0.248 -0.171,0.22 -0.142,-0.013 0,0"
         style="fill:#f9edcd;fill-opacity:1;fill-rule:nonzero;stroke:none"
         transform="matrix(1.3333333,0,0,-1.3333333,202.8028,273.10347)"
         clip-path="url(#clipPath477)" />
      <path
         id="path478"
         d="m 0,0 c 0.38,-0.483 0.926,-0.894 1.555,-0.958 0.138,-0.015 0.14,0.181 0.03,0.224 C 1.027,-0.513 0.561,-0.308 0.149,0.149 0.056,0.252 -0.082,0.104 0,0"
         style="fill:#f9edcd;fill-opacity:1;fill-rule:nonzero;stroke:none"
         transform="matrix(1.3333333,0,0,-1.3333333,182.71813,266.17973)"
         clip-path="url(#clipPath479)" />
      <path
         id="path480"
         d="m 0,0 c 0.658,-0.392 1.46,-0.861 2.232,-0.964 0.162,-0.022 0.214,0.23 0.081,0.3 C 1.623,-0.298 0.864,-0.09 0.177,0.304 -0.02,0.417 -0.195,0.116 0,0"
         style="fill:#f9edcd;fill-opacity:1;fill-rule:nonzero;stroke:none"
         transform="matrix(1.3333333,0,0,-1.3333333,186.00387,271.64973)"
         clip-path="url(#clipPath481)" />
      <path
         id="path482"
         d="M 0,0 C 0.36,-0.865 0.751,-1.722 1.241,-2.522 1.272,-2.575 1.348,-2.529 1.321,-2.475 0.911,-1.644 0.493,-0.82 0.136,0.038 0.102,0.12 -0.035,0.084 0,0"
         style="fill:#f9edcd;fill-opacity:1;fill-rule:nonzero;stroke:none"
         transform="matrix(1.3333333,0,0,-1.3333333,163.56773,285.942)"
         clip-path="url(#clipPath483)" />
      <path
         id="path484"
         d="M 0,0 C 0.182,-0.937 0.56,-1.817 1.285,-2.454 1.396,-2.552 1.591,-2.425 1.5,-2.287 1.01,-1.539 0.575,-0.776 0.384,0.106 0.33,0.357 -0.048,0.25 0,0"
         style="fill:#f9edcd;fill-opacity:1;fill-rule:nonzero;stroke:none"
         transform="matrix(1.3333333,0,0,-1.3333333,165.74867,286.15693)"
         clip-path="url(#clipPath485)" />
      <path
         id="path486"
         d="M 0,0 C 0.374,-0.993 0.911,-2.056 1.815,-2.664 1.939,-2.747 2.08,-2.587 2.012,-2.468 1.497,-1.566 0.853,-0.779 0.434,0.183 0.328,0.427 -0.095,0.252 0,0"
         style="fill:#f9edcd;fill-opacity:1;fill-rule:nonzero;stroke:none"
         transform="matrix(1.3333333,0,0,-1.3333333,171.63667,290.0208)"
         clip-path="url(#clipPath487)" />
      <path
         id="path488"
         d="M 0,0 C 0.546,-0.552 1.067,-1.147 1.7,-1.602 1.815,-1.684 1.978,-1.52 1.896,-1.405 1.447,-0.77 0.854,-0.243 0.307,0.307 0.109,0.504 -0.196,0.199 0,0"
         style="fill:#f9edcd;fill-opacity:1;fill-rule:nonzero;stroke:none"
         transform="matrix(1.3333333,0,0,-1.3333333,171.0912,293.8028)"
         clip-path="url(#clipPath489)" />
    </g>
  </g>
</svg>
