<?xml version="1.0" encoding="UTF-8" standalone="no"?>
<!-- Created with Inkscape (http://www.inkscape.org/) -->

<svg
   width="128"
   height="128"
   viewBox="0 0 33.866666 33.866666"
   version="1.1"
   id="svg1"
   xmlns="http://www.w3.org/2000/svg"
   xmlns:svg="http://www.w3.org/2000/svg">
  <g
     inkscape:label="Layer 1"
     inkscape:groupmode="layer"
     id="layer1">
    <circle
       style="fill:#00005e;fill-opacity:1;stroke-width:0.25428"
       id="path2"
       cx="16.933332"
       cy="16.933332"
       r="16.933332" />
    <path
       id="path1"
       style="fill:#ffcc00;stroke-width:0.0342998"
       d="M 16.933622,1.3229165 A 15.610422,15.610423 0 0 0 1.3229168,16.933044 15.610422,15.610423 0 0 0 16.933622,32.54375 15.610422,15.610423 0 0 0 32.54375,16.933044 15.610422,15.610423 0 0 0 16.933622,1.3229165 Z m 7.385455,7.8348081 c 0.61362,-7.281e-4 0.748447,0.00915 1.062738,0.079132 0.969748,0.2160248 1.878909,0.7070308 2.619883,1.4144814 0.967543,0.923767 1.516202,2.021559 1.637999,3.27774 0.130557,1.346506 -0.419872,2.857864 -1.445088,3.967942 -0.496572,0.537678 -0.739542,0.562857 -1.149956,0.119559 -0.244061,-0.263612 -0.359251,-0.489942 -0.359251,-0.704642 0,-0.205936 0.08234,-0.363146 0.353476,-0.677496 0.376616,-0.436642 0.642354,-0.932106 0.782036,-1.457801 0.110087,-0.414325 0.111998,-1.12362 0.004,-1.554254 -0.314335,-1.253944 -1.272198,-2.258334 -2.48993,-2.611218 -1.63185,-0.472892 -3.004604,0.156583 -4.185687,1.918705 -0.303798,0.453249 -0.839523,1.5303 -1.143022,2.298172 -0.774377,1.959226 -1.564006,4.778816 -2.190167,7.822103 l -0.09183,0.44762 0.137462,0.39275 c 0.275804,0.787201 0.475523,1.606576 0.593169,2.433325 0.26042,1.830087 -0.0221,3.030342 -0.803985,3.412895 -0.489201,0.239339 -1.069379,0.08722 -1.43585,-0.376001 -0.458406,-0.579424 -0.632115,-1.365122 -0.59837,-2.705364 0.02002,-0.795294 0.06616,-1.184776 0.308426,-2.581762 l 0.113784,-0.655548 -0.0595,-0.219479 c -0.03274,-0.120508 -0.293068,-1.098694 -0.578698,-2.173993 -1.114565,-4.195892 -1.666044,-5.894853 -2.385965,-7.355999 -0.369305,-0.749539 -0.696413,-1.234354 -1.128002,-1.669771 -0.512058,-0.516604 -1.015409,-0.823185 -1.689986,-1.030394 -0.2768613,-0.08504 -0.3500197,-0.09289 -0.9015951,-0.09472 -0.5271326,-0.0017 -0.6334739,0.0077 -0.8744476,0.07682 -1.2450685,0.357253 -2.2481548,1.406706 -2.5638572,2.68226 -0.097196,0.392786 -0.1032204,1.066771 -0.012731,1.457799 0.1303762,0.563247 0.3611551,1.027506 0.7814603,1.573317 0.2796614,0.363173 0.3270828,0.500337 0.2766566,0.802251 -0.072816,0.435909 -0.3236313,0.695448 -0.698289,0.722547 -0.3063045,0.02216 -0.4568658,-0.05066 -0.7566236,-0.36445 -0.5794615,-0.606583 -1.0400236,-1.519185 -1.2498707,-2.476065 -0.051309,-0.233908 -0.064129,-0.434025 -0.063538,-1.011912 5.205e-4,-0.657614 0.00866,-0.75335 0.091264,-1.100859 0.3622668,-1.524286 1.3515032,-2.783892 2.7434798,-3.4931748 0.7824776,-0.3987153 1.4761681,-0.568334 2.3253175,-0.568334 0.6104048,0 1.009928,0.06218 1.548481,0.2402712 1.099635,0.3636197 1.984708,1.0125326 2.69901,1.9805046 1.031193,1.397409 2.142749,4.085973 2.833585,6.851776 0.152584,0.610882 0.302174,1.314866 0.349434,1.64609 0.007,0.04892 0.01182,0.0833 0.01963,0.09183 l 5.2e-4,6e-4 c 2.19e-4,1.53e-4 0.0016,4.68e-4 0.0019,5.98e-4 l 5.22e-4,5.99e-4 h 5.2e-4 5.21e-4 5.2e-4 c 2.42e-4,-4.4e-5 7.81e-4,8.5e-5 0.0013,0 l 5.21e-4,-5.99e-4 c 0.02091,-0.01365 0.06133,-0.165955 0.166341,-0.573532 0.770017,-2.988668 1.656949,-5.413739 2.559234,-6.996748 0.992128,-1.740617 2.257727,-2.7947455 3.813734,-3.1766632 0.286682,-0.070366 0.410604,-0.080126 1.029237,-0.080864 z" />
  </g>
</svg>