<?xml version="1.0" encoding="UTF-8" standalone="no"?>
<!-- Created with Inkscape (http://www.inkscape.org/) -->

<svg
   width="128"
   height="128"
   viewBox="0 0 33.866666 33.866666"
   version="1.1"
   id="svg1"
   xmlns="http://www.w3.org/2000/svg"
   xmlns:svg="http://www.w3.org/2000/svg">
  <g
     inkscape:label="Layer 1"
     inkscape:groupmode="layer"
     id="layer1">
    <circle
       style="fill:#00005e;fill-opacity:1;stroke-width:0.25428"
       id="path2"
       cx="16.933332"
       cy="16.933332"
       r="16.933332" />
    <path
       d="M 15.896571,32.531977 C 13.085102,32.315799 10.611486,31.489 8.3632122,30.013961 7.4456275,29.411959 6.6967903,28.799484 5.882921,27.985334 3.2762772,25.377794 1.7681092,22.176607 1.3723852,18.411441 c -0.02516,-0.239385 -0.03986,-0.782151 -0.03986,-1.471577 0,-1.110108 0.02006,-1.43685 0.13876,-2.260462 0.668107,-4.63569 3.385138,-8.7123373 7.4315092,-11.1502763 0.5456633,-0.328763 1.6949566,-0.896864 2.2604646,-1.117357 1.866138,-0.72762 3.756062,-1.082497 5.764934,-1.082497 2.009232,0 3.914588,0.357969 5.764936,1.083082 0.595576,0.233395 1.731339,0.797322 2.301454,1.142708 3.77642,2.287838 6.406665,6.030235 7.253338,10.3202843 0.189414,0.959762 0.261051,1.653369 0.282029,2.730759 0.02988,1.534687 -0.09805,2.718337 -0.446564,4.131516 -0.8529,3.458451 -2.891971,6.52976 -5.780749,8.707139 -2.208326,1.664497 -4.740942,2.671835 -7.585361,3.017039 -0.408207,0.04954 -0.737639,0.06447 -1.59186,0.07215 -0.592426,0.0053 -1.145403,0.0044 -1.228844,-0.0021 z m 1.52027,-7.961086 c 1.694436,-0.131089 2.954325,-0.466448 4.225639,-1.124785 1.532852,-0.793774 2.653079,-1.937358 3.467606,-3.53991 0.207899,-0.409033 0.410142,-0.975684 0.484761,-1.358218 0.0259,-0.132811 0.04047,-0.40566 0.03887,-0.728203 -0.0024,-0.457272 -0.01172,-0.550245 -0.08328,-0.819227 -0.27048,-1.016717 -1.033876,-1.870494 -2.038835,-2.280212 -1.330059,-0.542258 -2.782602,-0.266458 -3.779389,0.717611 -0.500151,0.49377 -0.903086,1.282995 -1.045634,2.048069 -0.07008,0.37611 -0.04799,1.052622 0.04556,1.395721 0.149682,0.54894 0.475913,1.093181 0.926811,1.546168 0.593412,0.596159 1.355199,0.967803 2.131666,1.039952 l 0.250481,0.02327 -0.257851,0.182051 c -1.337468,0.944303 -2.79297,1.367118 -5.06543,1.471485 -2.086084,0.09581 -4.031322,-0.225819 -5.40285,-0.893301 C 10.36423,21.788666 9.6430222,21.182935 8.9112663,20.23254 8.7637565,20.040955 8.5984109,19.854111 8.5438373,19.817331 8.4132211,19.72931 8.1657352,19.700879 7.9131005,19.744875 c -0.2321131,0.04042 -0.3298995,0.08443 -0.4331297,0.194937 -0.063125,0.06758 -0.070275,0.09747 -0.054723,0.228794 0.098212,0.82926 1.2586071,2.159598 2.5802092,2.958089 0.940735,0.568378 2.047211,0.981071 3.251381,1.2127 0.429029,0.08253 1.23932,0.188548 1.744651,0.228277 0.463473,0.03644 1.960197,0.03843 2.415351,0.0032 z m 4.149,-4.641917 c -1.007748,-0.264176 -1.699027,-1.363107 -1.486116,-2.362483 0.205353,-0.963914 0.996862,-1.582393 2.025098,-1.582393 0.422193,0 0.585771,0.03546 0.93357,0.202362 0.235277,0.112907 0.327567,0.179483 0.532701,0.384303 0.405365,0.404741 0.605618,0.882612 0.606047,1.446235 2.53e-4,0.251823 -0.01355,0.328504 -0.108786,0.606835 -0.196023,0.572916 -0.279429,0.726873 -0.474065,0.875038 -0.229101,0.174404 -0.605841,0.354127 -0.900071,0.429378 -0.315351,0.08065 -0.822243,0.08098 -1.128378,6.45e-4 z M 11.395325,18.909417 c 1.435218,-0.272253 2.528595,-1.401552 2.773183,-2.864283 0.06812,-0.40739 0.04728,-1.08704 -0.04399,-1.434356 -0.262201,-0.997831 -0.909488,-1.809176 -1.81749,-2.278141 -0.347901,-0.179684 -0.660294,-0.28233 -1.060532,-0.348469 l -0.325977,-0.05387 0.249676,-0.185625 c 1.150465,-0.855331 2.468847,-1.281247 4.436606,-1.433296 0.593666,-0.04587 1.934492,-0.03871 2.526311,0.0135 1.190848,0.105053 1.997906,0.28397 3.012583,0.667851 1.026867,0.388491 1.880604,1.055679 2.769711,2.164504 0.432607,0.539516 0.48237,0.569406 0.900272,0.540733 0.322123,-0.0221 0.45631,-0.05586 0.596603,-0.150108 0.08594,-0.05773 0.104161,-0.09006 0.112051,-0.198813 0.02852,-0.393139 -0.455971,-1.192198 -1.134262,-1.870692 -1.253941,-1.254309 -3.018003,-2.0996273 -5.095223,-2.4415733 -0.832195,-0.136994 -1.403934,-0.186815 -2.351486,-0.20491 -2.312302,-0.04416 -3.986786,0.284745 -5.624369,1.104762 -1.6292391,0.8158373 -2.7759503,1.9883763 -3.6145678,3.6959753 -0.4545223,0.925508 -0.6024719,1.639875 -0.4901551,2.366657 0.1745304,1.129315 0.8742015,2.094515 1.8857445,2.601388 0.3659224,0.183359 0.846577,0.318944 1.3046954,0.368027 0.2007,0.0215 0.73258,-0.01031 0.990613,-0.05927 z M 10.443046,17.441504 C 9.4033605,17.251987 8.6646045,16.403541 8.7284334,15.472312 c 0.018862,-0.275224 0.185993,-0.80606 0.3937717,-1.250691 0.1192343,-0.255149 0.1516379,-0.298897 0.2846347,-0.384239 0.233692,-0.149959 0.5358483,-0.276498 0.8246422,-0.345352 0.37259,-0.08883 0.896133,-0.07074 1.214158,0.04197 0.585384,0.207443 1.046039,0.694695 1.269341,1.342629 0.07337,0.212901 0.08384,0.289347 0.08519,0.622005 0.0016,0.373681 -0.01439,0.466053 -0.127924,0.743374 -0.288036,0.703508 -0.999534,1.188751 -1.78207,1.215376 -0.166878,0.0057 -0.368091,-0.0015 -0.447134,-0.01588 z"
       style="fill:#ffcc00;stroke-width:0.0303418"
       id="path1" />
  </g>
</svg>
