<?xml version="1.0" encoding="UTF-8" standalone="no"?>
<!-- Created with Inkscape (http://www.inkscape.org/) -->

<svg
   width="128"
   height="128"
   viewBox="0 0 33.866666 33.866666"
   version="1.1"
   id="svg1"
   inkscape:version="1.4.2 (f4327f4, 2025-05-13)"
   sodipodi:docname="Rak.svg"
   xmlns:inkscape="http://www.inkscape.org/namespaces/inkscape"
   xmlns:sodipodi="http://sodipodi.sourceforge.net/DTD/sodipodi-0.dtd"
   xmlns="http://www.w3.org/2000/svg"
   xmlns:svg="http://www.w3.org/2000/svg">
  <sodipodi:namedview
     id="namedview1"
     pagecolor="#ffffff"
     bordercolor="#000000"
     borderopacity="0.25"
     inkscape:showpageshadow="2"
     inkscape:pageopacity="0.0"
     inkscape:pagecheckerboard="0"
     inkscape:deskcolor="#d1d1d1"
     inkscape:document-units="mm"
     inkscape:zoom="4.0668163"
     inkscape:cx="64"
     inkscape:cy="64"
     inkscape:window-width="1920"
     inkscape:window-height="1009"
     inkscape:window-x="1912"
     inkscape:window-y="-8"
     inkscape:window-maximized="1"
     inkscape:current-layer="layer1" />
  <defs
     id="defs1" />
  <g
     inkscape:label="Layer 1"
     inkscape:groupmode="layer"
     id="layer1">
    <g
       id="g1"
       transform="matrix(0.24719,0,0,0.24719,-27.180208,-49.617308)">
      <path
         d="m 133.72,254.91 c 0,-20.59 -16.7,-37.29 -37.29,-37.29 -20.59,0 -37.29,16.7 -37.29,37.29 0,20.59 16.7,37.29 37.29,37.29 20.59,0 37.29,-16.7 37.29,-37.29 z"
         style="fill:#111111;fill-opacity:1;fill-rule:nonzero;stroke:none"
         id="path1" />
      <g
         id="g2"
         transform="translate(182.26,254.91)">
        <path
           d="m 0,0 c -0.02,-11.39 -4.01,-21.8 -10.98,-29.41 -15.42,-16.84 -42.06,-16.84 -57.48,0"
           style="fill:none;stroke:#111111;stroke-width:8;stroke-linecap:round;stroke-linejoin:round;stroke-miterlimit:10;stroke-dasharray:none;stroke-opacity:1"
           id="path2" />
      </g>
      <g
         id="g3"
         transform="translate(108.8,292.2)">
        <path
           d="m 0,0 c 0.02,11.39 4.01,21.8 10.98,29.41 15.42,16.84 42.06,16.84 57.48,0"
           style="fill:none;stroke:#111111;stroke-width:8;stroke-linecap:round;stroke-linejoin:round;stroke-miterlimit:10;stroke-dasharray:none;stroke-opacity:1"
           id="path3" />
      </g>
      <g
         id="g4"
         transform="translate(150.31,235.34)">
        <path
           d="m 0,0 c -2.87,1.3 -5.04,4.2 -5.2,7.2 -0.17,3 1.5,5.8 4.2,7.1 2.7,1.3 5.9,0.7 7.9,-1.4 2,-2.1 2.2,-5.3 0.6,-7.7 -1.6,-2.4 -4.5,-3.8 -7.5,-2.2"
           style="fill:#f9edcd;fill-opacity:1;fill-rule:nonzero;stroke:none"
           id="path4" />
      </g>
      <g
         id="g5"
         transform="translate(171.74,250.72)">
        <path
           d="m 0,0 c -1.18,3.01 -4.43,4.72 -7.5,4.12 -3.07,-0.6 -5.25,-3.2 -5.25,-6.2 0,-3 2.18,-5.6 5.25,-6.2 3.07,-0.6 6.32,1.11 7.5,4.12"
           style="fill:#f9edcd;fill-opacity:1;fill-rule:nonzero;stroke:none"
           id="path5" />
      </g>
      <g
         id="g6"
         transform="translate(112.5,308.36)">
        <path
           d="m 0,0 c 2.87,1.3 5.04,4.2 5.2,7.2 0.17,3 -1.5,5.8 -4.2,7.1 -2.7,1.3 -5.9,0.7 -7.9,-1.4 -2,-2.1 -2.2,-5.3 -0.6,-7.7 1.6,-2.4 4.5,-3.8 7.5,-2.2"
           style="fill:#f9edcd;fill-opacity:1;fill-rule:nonzero;stroke:none"
           id="path6" />
      </g>
      <g
         id="g7"
         transform="translate(91.07,292.99)">
        <path
           d="m 0,0 c 1.18,3.01 4.43,4.72 7.5,4.12 3.07,-0.6 5.25,-3.2 5.25,-6.2 0,-3 -2.18,-5.6 -5.25,-6.2 -3.07,-0.6 -6.32,1.11 -7.5,4.12"
           style="fill:#f9edcd;fill-opacity:1;fill-rule:nonzero;stroke:none"
           id="path7" />
      </g>
      <path
         d="m 133.72,254.91 c 0,-20.59 -16.7,-37.29 -37.29,-37.29 -20.59,0 -37.29,16.7 -37.29,37.29 0,20.59 16.7,37.29 37.29,37.29 20.59,0 37.29,-16.7 37.29,-37.29 z"
         style="fill:none;stroke:#af9269;stroke-width:1;stroke-linecap:butt;stroke-linejoin:miter;stroke-miterlimit:10;stroke-dasharray:none;stroke-opacity:1"
         id="path8" />
      <g
         id="g9"
         transform="translate(133.34,260.88)">
        <path
           d="M 1.2583856,1.4871957 4.1481231,1.4820252 4.1950478,1.026727 3.0039233,0.89329759 C 2.8710609,0.88094892 2.8601683,0.81423851 2.8596637,0.72081198 L 2.8544933,-1.7246231 c 0.00762,-0.2078519 0.046892,-0.3666016 0.1755106,-0.4907137 0.1558237,-0.1382464 0.5054178,-0.4191316 0.8105749,-0.4200784 0.1068832,-0.003262 0.1691238,0.016391 0.2066896,0.0754881 0.055811,0.0631627 0.1118671,0.2443048 0.1593922,0.7963499 L 4.7937399,-1.7925004 C 4.5427976,-2.062635 4.561917,-2.4939763 4.5663749,-2.7212003 4.3129532,-2.8101416 4.0863953,-2.8336342 3.9189394,-2.8407421 c -0.5065463,-0.00192 -1.0238815,0.267675 -1.2741916,0.7109529 L 2.5186591,0.40722137 2.4578168,0.38556687 C 2.4665487,0.32049074 2.4912951,0.11326463 2.492584,0.00508587 2.4906059,-0.26084053 2.3486161,-0.52093553 2.2646695,-0.51926613 L 0.89922247,-0.38883652 0.84310577,-0.06016027 c 0.77884883,0.10332845 0.79972323,0.21852105 0.80387533,0.47253505 L 0.81308332,2.8340478 C 0.80668382,3.072793 0.80108392,3.2185567 -0.0034421,3.337583 L 1.2583856,1.4871957 Z"
           style="fill:#af9269;fill-opacity:1;fill-rule:nonzero;stroke:none"
           aria-label="T"
           transform="matrix(1.3333333,0,0,-1.3333333,0,0)" />
      </g>
      <g
         id="g10"
         transform="translate(142.13,264.01)">
        <path
           d="M 1.7011986,2.2343265 C 1.9504294,2.330738 2.722986,2.5072665 3.4097011,2.5040191 4.8675416,2.5015248 5.679148,1.7167559 5.6759926,0.75346844 5.6827426,-0.14427256 4.9504866,-0.55316796 4.1789761,-0.88908526 C 3.4332842,-1.2205251 2.6508186,-1.4626001 2.6480483,-2.0907233 2.6505852,-2.3509091 2.7827166,-2.5301159 2.8944687,-2.622435 3.0270846,-2.7130383 3.3101347,-2.7809701 3.7038907,-2.7818322 3.9968516,-2.7842135 4.2878104,-2.7443885 4.4481533,-2.6261589 4.5494265,-2.5660439 4.604495,-2.4235183 4.6722428,-1.5872334 L 5.2249106,-1.6456414 C 5.3257995,-1.9206907 5.3890527,-2.4991311 5.3886676,-2.8342954 5.3871401,-2.9350924 5.3827226,-3.0264574 5.3843326,-3.1272544 5.0904194,-3.2420528 4.5828466,-3.416012 3.9231889,-3.4246738 c -1.3242703,-0.00094 -2.2162867,0.6954111 -2.2081768,1.6914718 -0.00923,0.8813544 0.694733,1.2693858 1.4076517,1.6057801 0.7620786,0.3289626 1.5306348,0.5899014 1.5314049,1.2602298 -0.00752,0.2274126 -0.085548,0.4319608 -0.26237,0.5927807 C 4.2431256,1.8081481 4.0186674,1.8756028 3.6671166,1.8784651 3.2311553,1.877327 2.8553091,1.7749149 2.6716249,1.6685944 2.5584416,1.5851381 2.5440552,1.5454102 2.4182847,0.49171164 l -0.6206915,0.05193 c -0.070116,0.3123 -0.1204139,0.75569296 -0.121552,1.19165406 -0.001046,0.1593888 3.851e-4,0.3351642 0.025157,0.4990307 z m 0,0"
           style="fill:#af9269;fill-opacity:1;fill-rule:nonzero;stroke:none"
           aria-label="s"
           transform="matrix(1.3333333,0,0,-1.3333333,0,0)" />
      </g>
    </g>
  </g>
</svg>