<?xml version="1.0" encoding="UTF-8" standalone="no"?>
<!-- Created with Inkscape (http://www.inkscape.org/) -->

<svg
   width="128"
   height="128"
   viewBox="0 0 33.866666 33.866666"
   version="1.1"
   id="svg1"
   inkscape:version="1.4.2 (f4327f4, 2025-05-13)"
   sodipodi:docname="Ribe.svg"
   xmlns:inkscape="http://www.inkscape.org/namespaces/inkscape"
   xmlns:sodipodi="http://sodipodi.sourceforge.net/DTD/sodipodi-0.dtd"
   xmlns="http://www.w3.org/2000/svg"
   xmlns:svg="http://www.w3.org/2000/svg">
  <sodipodi:namedview
     id="namedview1"
     pagecolor="#ffffff"
     bordercolor="#000000"
     borderopacity="0.25"
     inkscape:showpageshadow="2"
     inkscape:pageopacity="0.0"
     inkscape:pagecheckerboard="0"
     inkscape:deskcolor="#d1d1d1"
     inkscape:document-units="mm"
     inkscape:zoom="2.8756734"
     inkscape:cx="34.600591"
     inkscape:cy="32.861868"
     inkscape:window-width="1920"
     inkscape:window-height="1009"
     inkscape:window-x="1912"
     inkscape:window-y="-8"
     inkscape:window-maximized="1"
     inkscape:current-layer="layer1" />
  <defs
     id="defs1" />
  <g
     inkscape:label="Layer 1"
     inkscape:groupmode="layer"
     id="layer1">
    <circle
       style="fill:#00005e;fill-opacity:1;stroke-width:0.25428"
       id="path2"
       cx="16.933332"
       cy="16.933332"
       r="16.933332" />
    <path
       d="m 16.049912,32.525169 c -2.835706,-0.169771 -5.456017,-1.041773 -7.7789976,-2.588736 -0.900246,-0.599506 -1.520866,-1.113023 -2.369585,-1.960655 -1.317159,-1.315471 -2.193477,-2.531273 -2.986698,-4.143739 -0.907315,-1.844396 -1.418077,-3.747081 -1.56383,-5.825618 -0.04479,-0.638771 -0.0205,-2.141893 0.04391,-2.715588 0.213198,-1.899238 0.675829,-3.523928 1.473086,-5.173271 0.343377,-0.7103694 0.593899,-1.1478094 1.051276,-1.8356774 2.489227,-3.743633 6.4167026,-6.214567 10.8449776,-6.823023 0.78604,-0.108004 1.243381,-0.136855 2.169436,-0.136855 0.500638,0 1.094578,0.01718 1.319865,0.0382 3.333055,0.310846 6.208567,1.499744 8.7536,3.619224 0.450447,0.375128 1.337125,1.255276 1.76391,1.750913 2.092633,2.43024 3.34558,5.3300454 3.698822,8.5604844 0.06647,0.607925 0.091,2.011355 0.04665,2.670076 -0.153207,2.275899 -0.779627,4.458652 -1.840497,6.41317 -1.226737,2.260082 -3.039216,4.225271 -5.201148,5.639353 -1.873622,1.225513 -3.992087,2.032591 -6.191445,2.358781 -0.971016,0.144014 -2.318211,0.207745 -3.233337,0.152956 z m -4.280901,-6.952478 c 0.07167,-0.03628 0.320977,-0.25938 0.567949,-0.508223 1.957413,-1.972254 3.211034,-4.709616 3.444257,-7.520758 l 0.02077,-0.250319 h 1.888089 1.888092 l 0.03519,0.359633 c 0.218868,2.236612 1.120138,4.487153 2.541336,6.345898 0.56318,0.736565 1.204674,1.428863 1.430017,1.543259 0.318653,0.161773 0.577043,0.04676 0.875139,-0.389513 0.16648,-0.243647 0.206838,-0.439206 0.123792,-0.599798 -0.02653,-0.0513 -0.234395,-0.29592 -0.461924,-0.543593 -1.007522,-1.096714 -1.674637,-2.083974 -2.166821,-3.206663 -0.443941,-1.012655 -0.753279,-2.2051 -0.837534,-3.228563 l -0.02061,-0.250319 h 1.171028 c 0.733448,0 1.23111,-0.01246 1.331814,-0.03335 0.389843,-0.08087 0.552548,-0.284841 0.554276,-0.694849 0.0012,-0.263617 -0.06404,-0.464991 -0.189218,-0.584893 -0.170832,-0.163629 -0.198744,-0.167005 -1.577921,-0.190857 l -1.281252,-0.02215 v -0.100133 c 0,-0.338223 0.177717,-1.342413 0.34668,-1.958909 0.509723,-1.859842 1.617657,-3.662225 3.109298,-5.0582084 0.467024,-0.43708 0.504773,-0.545504 0.331014,-0.950759 -0.0659,-0.15369 -0.333206,-0.429401 -0.464836,-0.47945 -0.169225,-0.06434 -0.354049,-0.03676 -0.559938,0.08354 -0.346182,0.202288 -1.218502,1.122945 -1.820281,1.921149 -1.411312,1.8719824 -2.289716,4.1229964 -2.447162,6.2711294 l -0.02056,0.280662 h -1.890152 -1.890147 l -0.01614,-0.128952 c -0.0089,-0.07093 -0.03834,-0.30645 -0.0655,-0.523395 -0.09155,-0.731417 -0.319304,-1.705979 -0.576679,-2.467592 -0.56259,-1.66482 -1.615253,-3.4038694 -2.798352,-4.6230274 -0.608015,-0.626538 -1.04245,-0.933055 -1.263641,-0.89156 -0.251915,0.04726 -0.714593,0.587899 -0.714593,0.835001 0,0.170747 0.09251,0.285779 0.757751,0.942287 0.605447,0.597496 0.908802,0.948884 1.296913,1.5022714 1.065482,1.519221 1.703518,3.308696 1.867336,5.23729 l 0.0093,0.109882 -0.225594,0.01907 c -0.124077,0.01048 -0.708785,0.01907 -1.299357,0.01907 -1.012224,0 -1.080549,0.0035 -1.192163,0.06041 -0.226041,0.115315 -0.346309,0.359428 -0.344333,0.698907 0.0018,0.325856 0.15095,0.572205 0.404467,0.66848 0.08019,0.03046 0.416377,0.04318 1.372964,0.05198 l 1.266771,0.01165 v 0.07197 c 0,0.03958 -0.02102,0.232456 -0.04675,0.428607 -0.303565,2.315726 -1.291177,4.364998 -2.98352,6.190734 -0.231466,0.249708 -0.436261,0.482823 -0.455107,0.518039 -0.137783,0.257443 0.171569,0.833388 0.548523,1.02123 0.191138,0.09525 0.261786,0.09752 0.427283,0.0137 z"
       style="fill:#ffcc00;stroke-width:0.0303418"
       id="path1" />
  </g>
</svg>
