<?xml version="1.0" encoding="UTF-8" standalone="no"?>
<!-- Created with Inkscape (http://www.inkscape.org/) -->

<svg
   width="128"
   height="128"
   viewBox="0 0 33.866666 33.866666"
   version="1.1"
   id="svg1"
   inkscape:version="1.4.2 (f4327f4, 2025-05-13)"
   sodipodi:docname="Skorpija.svg"
   xmlns:inkscape="http://www.inkscape.org/namespaces/inkscape"
   xmlns:sodipodi="http://sodipodi.sourceforge.net/DTD/sodipodi-0.dtd"
   xmlns="http://www.w3.org/2000/svg"
   xmlns:svg="http://www.w3.org/2000/svg">
  <sodipodi:namedview
     id="namedview1"
     pagecolor="#ffffff"
     bordercolor="#000000"
     borderopacity="0.25"
     inkscape:showpageshadow="2"
     inkscape:pageopacity="0.0"
     inkscape:pagecheckerboard="0"
     inkscape:deskcolor="#d1d1d1"
     inkscape:document-units="mm"
     inkscape:zoom="4.0668163"
     inkscape:cx="64"
     inkscape:cy="64"
     inkscape:window-width="1920"
     inkscape:window-height="1009"
     inkscape:window-x="1912"
     inkscape:window-y="-8"
     inkscape:window-maximized="1"
     inkscape:current-layer="layer1" />
  <defs
     id="defs1" />
  <g
     inkscape:label="Layer 1"
     inkscape:groupmode="layer"
     id="layer1">
    <g
       id="g1"
       transform="matrix(0.24619,0,0,0.24619,-26.837381,-49.638706)">
      <path
         d="m 133.72,254.91 c 0,-20.59 -16.7,-37.29 -37.29,-37.29 -20.59,0 -37.29,16.7 -37.29,37.29 0,20.59 16.7,37.29 37.29,37.29 20.59,0 37.29,-16.7 37.29,-37.29 z"
         style="fill:#111111;fill-opacity:1;fill-rule:nonzero;stroke:none"
         id="path1" />
      <g
         id="g2"
         transform="translate(110.87,268.01)">
        <path
           d="M 0,0 -2.5,25.85 H -6.44 L -8.76,0.11 l 4.03,-0.12 1.5,15.62 1.4,-15.59 z"
           style="fill:#111111;fill-opacity:1;fill-rule:nonzero;stroke:none"
           id="path2" />
      </g>
      <g
         id="g3"
         transform="translate(128.8,268.01)">
        <path
           d="M 0,0 -2.5,25.85 H -6.44 L -8.76,0.11 l 4.03,-0.12 1.5,15.62 1.4,-15.59 z"
           style="fill:#111111;fill-opacity:1;fill-rule:nonzero;stroke:none"
           id="path3" />
      </g>
      <g
         id="g4"
         transform="translate(146.74,268.01)">
        <path
           d="m 0,0 -2.5,25.85 h -3.94 l -2.32,-25.74 4.03,-0.11 1.5,15.62 1.4,-15.59 z"
           style="fill:#111111;fill-opacity:1;fill-rule:nonzero;stroke:none"
           id="path4" />
      </g>
      <g
         id="g5"
         transform="translate(157.01,294.53)">
        <path
           d="m 0,0 -3.42,0.14 -0.19,4.42 -4.31,0.22 -0.22,-4.7 4.54,-0.18 0.17,-4.1 4.54,-0.18"
           style="fill:none;stroke:#111111;stroke-width:8;stroke-linecap:round;stroke-linejoin:round;stroke-miterlimit:10;stroke-dasharray:none;stroke-opacity:1"
           id="path5" />
      </g>
      <g
         id="g6"
         transform="translate(142.1,237.95)">
        <path
           d="m 0,0 c -0.32,-1.332 -2.25,-2 -2.62,-0.7 -1.25,4.35 1.13,8.91 5.37,9.63 4.25,0.73 8.35,-2.34 9.17,-6.33 0.81,-3.99 -1.63,-8.03 -5.5,-8.87"
           style="fill:#f9edcd;fill-opacity:1;fill-rule:nonzero;stroke:none"
           id="path6" />
      </g>
      <g
         id="g7"
         transform="translate(157.6,215.27)">
        <path
           d="m 0,0 c -0.19,-1.492 -2.2,-1.93 -2.71,-0.63 -1.88,4.86 1.15,10.23 5.95,10.74 4.8,0.51 9.3,-3.39 9.88,-8.1 0.58,-4.71 -2.78,-9.05 -7.21,-9.8"
           style="fill:#f9edcd;fill-opacity:1;fill-rule:nonzero;stroke:none"
           id="path7" />
      </g>
      <g
         id="g8"
         transform="translate(125.75,214.4)">
        <path
           d="m 0,0 c -0.04,-1.532 -2.03,-2.11 -2.62,-0.81 -2.31,5.09 1.25,10.9 6.4,11.23 5.15,0.33 9.92,-4.06 9.89,-9.12 -0.03,-5.06 -4.84,-9.08 -9.67,-8.3"
           style="fill:#f9edcd;fill-opacity:1;fill-rule:nonzero;stroke:none"
           id="path8" />
      </g>
      <g
         id="g9"
         transform="translate(108.38,231.11)">
        <path
           d="m 0,0 c 0.51,-1.522 -0.59,-3.2 -2.13,-3.6 -1.54,-0.4 -3.11,0.5 -3.7,2 -0.59,1.5 -0.05,3.3 1.3,4 1.35,0.7 3.03,0.2 4,-1"
           style="fill:#f9edcd;fill-opacity:1;fill-rule:nonzero;stroke:none"
           id="path9" />
      </g>
      <g
         id="g10"
         transform="translate(142.1,304.53)">
        <path
           d="m 0,0 c -0.32,1.332 -2.25,2 -2.62,0.7 -1.25,-4.35 1.13,-8.91 5.37,-9.63 4.25,-0.73 8.35,2.34 9.17,6.33 0.81,3.99 -1.63,8.03 -5.5,8.87"
           style="fill:#f9edcd;fill-opacity:1;fill-rule:nonzero;stroke:none"
           id="path10" />
      </g>
      <g
         id="g11"
         transform="translate(157.6,281.85)">
        <path
           d="m 0,0 c -0.19,1.492 -2.2,1.93 -2.71,0.63 -1.88,-4.86 1.15,-10.23 5.95,-10.74 4.8,-0.51 9.3,3.39 9.88,8.1 0.58,4.71 -2.78,9.05 -7.21,9.8"
           style="fill:#f9edcd;fill-opacity:1;fill-rule:nonzero;stroke:none"
           id="path11" />
      </g>
      <g
         id="g12"
         transform="translate(125.75,280.98)">
        <path
           d="m 0,0 c -0.04,1.532 -2.03,2.11 -2.62,0.81 -2.31,-5.09 1.25,-10.9 6.4,-11.23 5.15,-0.33 9.92,4.06 9.89,9.12 -0.03,5.06 -4.84,9.08 -9.67,8.3"
           style="fill:#f9edcd;fill-opacity:1;fill-rule:nonzero;stroke:none"
           id="path12" />
      </g>
      <g
         id="g13"
         transform="translate(108.38,264.53)">
        <path
           d="m 0,0 c 0.51,1.522 -0.59,3.2 -2.13,3.6 -1.54,0.4 -3.11,-0.5 -3.7,-2 -0.59,-1.5 -0.05,-3.3 1.3,-4 1.35,-0.7 3.03,-0.2 4,-1"
           style="fill:#f9edcd;fill-opacity:1;fill-rule:nonzero;stroke:none"
           id="path13" />
      </g>
      <g
         id="g14"
         transform="translate(90.04,249.56)">
        <path
           d="m 0,0 c -0.01,-0.742 -0.83,-1.2 -1.48,-0.8 -0.65,0.4 -0.83,1.3 -0.4,1.9 0.43,0.6 1.3,0.7 1.8,0.3"
           style="fill:#f9edcd;fill-opacity:1;fill-rule:nonzero;stroke:none"
           id="path14" />
      </g>
      <path
         d="m 133.72,254.91 c 0,-20.59 -16.7,-37.29 -37.29,-37.29 -20.59,0 -37.29,16.7 -37.29,37.29 0,20.59 16.7,37.29 37.29,37.29 20.59,0 37.29,-16.7 37.29,-37.29 z"
         style="fill:none;stroke:#af9269;stroke-width:1;stroke-linecap:butt;stroke-linejoin:miter;stroke-miterlimit:10;stroke-dasharray:none;stroke-opacity:1"
         id="path15" />
      <g
         id="g16"
         transform="translate(133.34,254.88)">
        <path
           d="m 1.6385154,-1.821033 -2.2530182,0.00393 0.1706606,-1.3060205 1.5543166,-0.370701 c 0.1802958,-0.021021 0.1912959,-0.093121 0.1919864,-0.1585863 L 1.3067139,-5.7667637 4.1481231,-5.772591 4.3989139,-4.4665705 C 4.417277,-4.3418704 4.4278146,-4.298284 4.441097,-4.2384789 4.3420846,-4.0620633 4.092049,-3.9877864 3.6190478,-3.8797967 L 3.2385154,-1.8252264 5.3789805,-1.821033 5.4216317,-2.2471957 C 5.0003058,-2.3333334 4.8856231,-2.4045053 4.849591,-2.5085863 L 2.6599187,-8.4322863 1.8499911,-8.4274291 0.17959972,-2.7231456 c -0.10626242,0.2241699 -0.12658866,0.2477123 0.39573718,0.3667421 z"
           style="fill:#af9269;fill-opacity:1;fill-rule:nonzero;stroke:none"
           aria-label="L"
           transform="matrix(1.3333333,0,0,-1.3333333,0,0)" />
      </g>
      <g
         id="g17"
         transform="translate(142.13,258.01)">
        <path
           d="m -0.58788931,-3.5701955 c 0,-1.1578351 0.73024811,-1.9333555 1.83856111,-1.9348924 1.1517032,1.2483e-4 1.8327299,0.8290234 1.8299903,1.921979 -2.7396e-4,1.1617812 -0.7302482,1.9333555 -1.8385612,1.9348923 -1.1517031,-1.248e-4 -1.8299903,-0.8290233 -1.8299903,-1.9219789 z m 4.793393,0.015371 c -0.0031,2.0298379 -1.3533475,3.3106198 -3.003923,3.312903 -1.5975294,-0.00257 -2.9902058,-1.272166 -2.9863459,-3.328274 -0.0031,-2.029838 1.3533475,-3.31062 3.003923,-3.3129031 1.5975294,0.00257 2.9902058,1.2721659 2.9863459,3.3282741 z"
           style="fill:#af9269;fill-opacity:1;fill-rule:nonzero;stroke:none"
           aria-label="a"
           transform="matrix(1.3333333,0,0,-1.3333333,0,0)" />
      </g>
      <g
         id="g18"
         transform="translate(152.01,254.88)">
        <path
           d="m 3.2385154,-1.8252264 2.1404651,-0.00419 -0.04265,0.4261623 -1.1404653,0.3307008 c -0.1202888,0.010738 -0.1302888,0.071853 -0.1309794,0.1373183 L 4.0607139,-5.7667637 1.8499911,-5.772591 1.6385154,-1.821033 0.17959972,-2.7231456 C 0.0733373,-2.4989757 0.05301106,-2.4754333 0.5753369,-2.3564035 L 5.4216317,-2.2471957 5.3789805,-1.821033 3.6190478,-1.8252264 3.2385154,-1.8252264 Z"
           style="fill:#af9269;fill-opacity:1;fill-rule:nonzero;stroke:none"
           aria-label="v"
           transform="matrix(1.3333333,0,0,-1.3333333,0,0)" />
      </g>
    </g>
  </g>
</svg>