<?xml version="1.0" encoding="UTF-8" standalone="no"?>
<!-- Created with Inkscape (http://www.inkscape.org/) -->

<svg
   width="128"
   height="128"
   viewBox="0 0 33.866666 33.866666"
   version="1.1"
   id="svg1"
   xmlns="http://www.w3.org/2000/svg"
   xmlns:svg="http://www.w3.org/2000/svg">
  <g
     inkscape:label="Layer 1"
     inkscape:groupmode="layer"
     id="layer1">
    <circle
       style="fill:#00005e;fill-opacity:1;stroke-width:0.25428"
       id="path2"
       cx="16.933332"
       cy="16.933332"
       r="16.933332" />
    <path
       d="M 16.05827,32.52719 C 12.735439,32.347515 9.6012156,31.125015 7.0012496,28.994507 5.5850116,27.833985 4.2480046,26.243692 3.3282596,24.625694 0.94528156,20.433629 0.66673856,15.176326 2.5919856,10.729166 3.6667456,8.2465602 5.3901296,6.0626302 7.5633286,4.4293282 10.986147,1.8568572 15.30138,0.81944817 19.589179,1.5382392 c 3.181771,0.533382 6.078751,2.034746 8.394412,4.350407 1.252949,1.252947 2.190622,2.556964 2.957024,4.1123158 0.888366,1.802851 1.393162,3.625196 1.567499,5.658739 0.04854,0.566165 0.04854,1.982548 0,2.54871 -0.286714,3.344395 -1.553949,6.379182 -3.724926,8.920478 -0.382467,0.447708 -1.202468,1.26771 -1.650177,1.650179 -3.104352,2.651978 -6.994984,3.968714 -11.074741,3.748122 z m 10.746758,-6.700138 c 0.165563,-0.104998 0.389997,-0.328856 0.763347,-0.761401 0.15124,-0.175223 0.379553,-0.434647 0.507356,-0.576497 0.545603,-0.60555 0.657133,-0.825155 0.626271,-1.233175 -0.01713,-0.226743 -0.102942,-0.445528 -0.24198,-0.617088 -0.244937,-0.302215 -1.349502,-1.532985 -1.502527,-1.674196 -0.315505,-0.291145 -0.472096,-0.298652 -0.824102,-0.03952 -0.209574,0.15428 -0.36609,0.374204 -0.365095,0.512994 0.0014,0.178194 0.173289,0.472923 0.492354,0.843628 0.08259,0.09596 0.136857,0.174468 0.120593,0.174468 -0.06296,0 -0.391323,-0.161997 -0.59359,-0.292841 -0.908699,-0.587834 -1.498888,-1.790196 -1.658377,-3.378514 -0.08791,-0.875489 -0.07039,-1.999316 0.06186,-3.968431 0.159214,-2.370644 0.132049,-3.510203 -0.106063,-4.448856 -0.147657,-0.5820838 -0.38421,-1.0404308 -0.724971,-1.4047058 -0.693337,-0.741176 -1.813675,-1.019738 -2.685293,-0.667676 -0.326959,0.132065 -0.526568,0.270681 -0.83966,0.583082 -0.434619,0.43366 -0.760604,0.951358 -1.108131,1.7598198 -0.163498,0.380342 -0.555885,1.53559 -0.728569,2.145007 -0.0553,0.195165 -0.109878,0.349077 -0.121281,0.342025 -0.0114,-0.007 -0.03009,-0.0848 -0.04153,-0.172787 C 17.80007,12.678717 17.60585,11.722409 17.514123,11.3693 17.020919,9.4707762 16.161754,8.4169692 15.00451,8.2911372 c -0.450864,-0.04902 -0.874603,0.03873 -1.307559,0.270772 -0.621436,0.333063 -0.938612,0.715143 -1.358345,1.6362818 -0.307968,0.675867 -0.738341,1.878596 -1.079812,3.017674 l -0.09965,0.332432 -0.0518,-0.423455 C 10.842057,10.956069 10.311305,9.5978052 9.4464816,8.8744922 c -0.224847,-0.188057 -0.654532,-0.409469 -0.928138,-0.478264 -0.885706,-0.222697 -1.818497,0.10647 -2.627832,0.927321 -0.635229,0.64426 -1.004176,1.4199218 -0.832918,1.7510978 0.132185,0.255614 0.657128,0.44567 0.937039,0.339246 0.143229,-0.05446 0.297797,-0.225716 0.560058,-0.620528 0.318903,-0.480094 0.553515,-0.723419 0.841009,-0.8722488 1.001318,-0.518375 1.648823,0.1417118 2.063296,2.1033958 0.162171,0.767552 0.273424,1.614295 0.439757,3.346947 0.100987,1.05199 0.1643524,1.636455 0.2143654,1.977332 0.03016,0.205516 0.02354,0.259877 -0.1201554,0.986108 -0.186993,0.945122 -0.269383,1.503523 -0.304859,2.066162 -0.08266,1.311011 0.206246,2.008133 0.8895144,2.146347 0.338095,0.06839 0.67421,-0.04298 0.905195,-0.299936 0.583575,-0.649195 0.642652,-1.852573 0.205417,-4.184183 l -0.09512,-0.507223 0.212162,-0.864739 c 0.472986,-1.927799 1.045223,-3.860273 1.536384,-5.188442 0.473481,-1.280345 0.871949,-1.7901628 1.399183,-1.7901628 0.609381,0 1.136023,0.8581738 1.480305,2.4121688 0.105446,0.475973 0.572843,3.237894 0.675978,3.994482 l 0.05232,0.383812 -0.172395,0.693322 c -0.63819,2.566636 -0.676241,3.585775 -0.162146,4.343188 0.574848,0.846925 1.581987,0.848086 2.005114,0.0023 0.177772,-0.355347 0.214741,-0.586385 0.212993,-1.331034 -0.0018,-0.732619 -0.0321,-1.02914 -0.245591,-2.396999 -0.07683,-0.492294 -0.141336,-0.997486 -0.143342,-1.122645 -0.0032,-0.202348 0.03429,-0.365397 0.33876,-1.471578 0.758438,-2.755558 1.059366,-3.67266 1.479808,-4.509813 0.405209,-0.8068198 0.778626,-1.1352758 1.287486,-1.1324688 0.688954,0.0038 1.135228,0.6190678 1.275512,1.7585378 0.07598,0.617131 0.04018,1.819876 -0.113791,3.823062 -0.03739,0.486399 -0.05164,1.046227 -0.05255,2.063243 -0.0014,1.286385 0.0041,1.434866 0.06741,1.895436 0.172032,1.252138 0.480334,2.160183 0.999241,2.943058 0.64712,0.976305 1.812374,1.778378 2.759796,1.899632 l 0.15679,0.02006 -0.293329,0.331442 c -0.635068,0.7176 -0.701841,0.934032 -0.395517,1.282035 0.277827,0.315627 0.587486,0.400403 0.85134,0.233071 z"
       style="fill:#ffcc00;stroke-width:0.0303418"
       id="path1" />
  </g>
</svg>
