<?xml version="1.0" encoding="UTF-8" standalone="no"?>
<!-- Created with Inkscape (http://www.inkscape.org/) -->

<svg
   width="128"
   height="128"
   viewBox="0 0 33.866666 33.866666"
   version="1.1"
   id="svg1"
   xmlns="http://www.w3.org/2000/svg"
   xmlns:svg="http://www.w3.org/2000/svg">
  <g
     inkscape:label="Layer 1"
     inkscape:groupmode="layer"
     id="layer1">
    <circle
       style="fill:#00005e;fill-opacity:1;stroke-width:0.25428"
       id="path2"
       cx="16.933332"
       cy="16.933332"
       r="16.933332" />
    <path
       d="m 16.055924,32.521717 c -3.494029,-0.190182 -6.8112642,-1.550482 -9.4454472,-3.873288 -2.38166,-2.100135 -4.071679,-4.880906 -4.827153,-7.942635 -0.60594,-2.455707 -0.60594,-5.099391 0,-7.555097 0.597756,-2.422529 1.77045,-4.6663652 3.409373,-6.5234812 2.509645,-2.843754 5.8764842,-4.660569 9.5797152,-5.1694 0.786045,-0.108001 1.243386,-0.136853 2.169437,-0.136853 0.926052,0 1.383393,0.02885 2.169436,0.136853 5.164736,0.709647 9.627479,3.963086 11.90855,8.6815982 0.79839,1.651509 1.276873,3.367757 1.478203,5.302084 0.05311,0.510251 0.05299,2.464944 -2.31e-4,2.973496 -0.339384,3.246142 -1.510489,6.054979 -3.55481,8.526032 -0.375171,0.453493 -1.502918,1.587793 -1.927739,1.938949 -0.467897,0.386764 -0.961259,0.75622 -1.410893,1.056557 -2.800146,1.870371 -6.128002,2.771365 -9.548497,2.585185 z m -5.65308,-7.253547 c 0.225154,-0.137258 1.190395,-1.127085 4.518589,-4.633676 l 1.680363,-1.770433 1.474723,1.473539 c 1.015879,1.015068 1.509822,1.488035 1.58753,1.520117 0.06204,0.02561 0.172007,0.04658 0.244362,0.04658 0.36339,0 0.781071,-0.417535 0.780362,-0.780092 -4.61e-4,-0.275297 -0.08122,-0.37067 -1.617172,-1.911763 l -1.427894,-1.432672 0.05869,-0.06799 c 0.06464,-0.0749 3.299425,-3.480176 5.745028,-6.047827 0.858318,-0.901149 1.564819,-1.643898 1.570009,-1.65056 0.0052,-0.0067 0.0068,1.126609 0.0037,2.518371 -0.0072,3.151287 -0.0061,3.16155 0.339424,3.34207 0.135142,0.0706 0.196883,0.08348 0.400048,0.08348 0.358543,0 0.536445,-0.09227 0.672761,-0.348932 0.06323,-0.119057 0.06495,-0.162392 0.08982,-2.275632 0.04032,-3.4254782 0.0092,-4.5125432 -0.140834,-4.9232812 -0.152511,-0.417464 -0.617182,-0.80222 -1.125612,-0.932021 -0.338468,-0.08641 -6.915221,-0.04655 -7.08241,0.04293 -0.03525,0.01886 -0.09473,0.09187 -0.132181,0.162235 -0.05914,0.111111 -0.06813,0.173835 -0.06837,0.476869 -4.61e-4,0.508563 0.09244,0.663481 0.436236,0.727919 0.102275,0.01918 1.18021,0.03062 2.880375,0.03062 h 2.716934 l -0.256727,0.265491 c -0.141207,0.146018 -1.212084,1.2689682 -2.379735,2.4954392 -2.928261,3.075766 -4.787276,5.020175 -4.809084,5.029987 -0.03076,0.01384 -1.069067,-1.02686 -1.796021,-1.800153 -0.37741,-0.401467 -0.742537,-0.768984 -0.811394,-0.816702 -0.102095,-0.07075 -0.157142,-0.08673 -0.29832,-0.08663 -0.406977,2.31e-4 -0.768963,0.3111 -0.814993,0.699738 -0.03867,0.326522 0.128706,0.537385 1.584281,1.995869 l 1.099071,1.10126 -1.502976,1.573108 c -4.0289832,4.216932 -4.6455062,4.90753 -4.6491882,5.207738 -0.0012,0.08676 0.114773,0.289553 0.2479,0.43398 0.268342,0.291118 0.5622822,0.385386 0.7826972,0.251027 z"
       style="fill:#ffcc00;stroke-width:0.0303418"
       id="path1" />
  </g>
</svg>