<?xml version="1.0" encoding="UTF-8" standalone="no"?>
<!-- Created with Inkscape (http://www.inkscape.org/) -->

<svg
   width="128"
   height="128"
   viewBox="0 0 33.866666 33.866666"
   version="1.1"
   id="svg1"
   xmlns="http://www.w3.org/2000/svg"
   xmlns:svg="http://www.w3.org/2000/svg">
  <g
     inkscape:label="Layer 1"
     inkscape:groupmode="layer"
     id="layer1">
    <circle
       style="fill:#00005e;fill-opacity:1;stroke-width:0.25428"
       id="path2"
       cx="16.933332"
       cy="16.933332"
       r="16.933332" />
    <path
       d="M 16.271567,32.533033 C 11.539398,32.329566 7.2566512,30.074926 4.4082542,26.287629 c -1.678597,-2.231903 -2.695832,-4.82383 -3.024644,-7.706807 -0.04423,-0.387818 -0.05537,-0.720435 -0.05537,-1.653628 0,-1.278895 0.02773,-1.64816 0.200514,-2.670074 0.363315,-2.148771 1.178534,-4.193957 2.39469,-6.0076711 2.50107,-3.729976 6.4176838,-6.186278 10.8310338,-6.792683 0.793345,-0.109005 1.243485,-0.13711 2.184607,-0.136399 1.104953,6.91e-4 1.840667,0.06392 2.821786,0.241939 2.633162,0.477782 5.110279,1.642801 7.192399,3.382677 0.735306,0.614439 1.574646,1.476305 2.200501,2.259543 3.037625,3.8015021 4.10867,8.8410631 2.89496,13.6215881 -0.571811,2.252229 -1.625887,4.304731 -3.156123,6.145606 -0.394593,0.474701 -1.450205,1.532531 -1.910397,1.914416 -1.564507,1.298281 -3.250066,2.242541 -5.113726,2.864743 -1.742061,0.5816 -3.746494,0.861718 -5.596918,0.782154 z m 9.694374,-10.23312 c 0.283794,-0.01729 0.586074,-0.05225 0.671727,-0.07769 0.286652,-0.08513 0.465723,-0.375346 0.420138,-0.680924 -0.04247,-0.284699 -0.189496,-0.528432 -0.387015,-0.641568 l -0.128537,-0.07362 -2.912809,-0.0187 c -7.397697,-0.04749 -16.1979438,-0.01513 -16.8990868,0.06217 -0.307106,0.03385 -0.388085,0.07757 -0.484663,0.261676 -0.09406,0.179309 -0.09051,0.673365 0.0061,0.85499 0.137903,0.259103 0.235268,0.283616 1.220605,0.307295 1.448448,0.03481 17.9335908,0.04049 18.4934828,0.0064 z M 14.110637,19.505169 c 0.110512,-0.0398 0.188713,-0.161824 0.188713,-0.294458 0,-0.159901 -0.08527,-0.414917 -0.342488,-1.024334 -0.598106,-1.417012 -0.70316,-1.836963 -0.781772,-3.125202 -0.0399,-0.653772 -0.01992,-1.104691 0.06346,-1.430588 0.06707,-0.262251 0.311995,-0.753972 0.508607,-1.02111 0.858061,-1.165836 2.400812,-1.670381 3.909192,-1.278471 1.413956,0.367377 2.391394,1.479667 2.590753,2.948186 0.05315,0.391535 0.02257,1.207111 -0.05967,1.591526 -0.147484,0.689327 -0.366619,1.313829 -0.791256,2.254979 -0.336333,0.745441 -0.363996,0.858015 -0.255829,1.041128 0.106014,0.17947 -0.05954,0.17021 3.381627,0.189088 3.299741,0.0181 3.883689,0.0072 4.083953,-0.07652 0.264966,-0.110712 0.374609,-0.303837 0.37562,-0.661616 6.91e-4,-0.253543 -0.04664,-0.411056 -0.160073,-0.532379 -0.09172,-0.0981 -0.14462,-0.122967 -0.379414,-0.178343 -0.17094,-0.04032 -0.547797,-0.05086 -2.372656,-0.06636 -2.119165,-0.01798 -2.172621,-0.01989 -2.306975,-0.08207 -0.165059,-0.07639 -0.293093,-0.219893 -0.318897,-0.357429 -0.01276,-0.06803 0.02098,-0.267067 0.104034,-0.61353 0.146257,-0.610142 0.204153,-0.933246 0.24566,-1.370963 0.153757,-1.621395 -0.298032,-3.054323 -1.292875,-4.100609 -1.802715,-1.8959311 -5.036775,-2.1546821 -7.063615,-0.565149 -0.860487,0.674832 -1.418603,1.575261 -1.666934,2.689332 -0.219179,0.983289 -0.177501,2.190663 0.117021,3.39014 0.16946,0.690135 0.132418,1.009292 -0.129852,1.118878 -0.198253,0.08284 -0.898224,0.103995 -2.7825948,0.08412 -2.465113,-0.026 -2.60416,-0.0092 -2.776272,0.335007 -0.06494,0.129884 -0.07586,0.19318 -0.07586,0.439957 0,0.259456 0.0083,0.302352 0.08301,0.429457 0.133219,0.226616 0.27172,0.277281 0.827241,0.302596 0.797504,0.03634 6.9646108,0.0056 7.0781388,-0.03527 z"
       style="fill:#ffcc00;stroke-width:0.0303418"
       id="path1" />
  </g>
</svg>