<?xml version="1.0" encoding="UTF-8" standalone="no"?>
<!-- Created with Inkscape (http://www.inkscape.org/) -->

<svg
   width="128"
   height="128"
   viewBox="0 0 33.866666 33.866666"
   version="1.1"
   id="svg1"
   inkscape:version="1.4.2 (f4327f4, 2025-05-13)"
   sodipodi:docname="Vodolija.svg"
   xmlns:inkscape="http://www.inkscape.org/namespaces/inkscape"
   xmlns:sodipodi="http://sodipodi.sourceforge.net/DTD/sodipodi-0.dtd"
   xmlns="http://www.w3.org/2000/svg"
   xmlns:svg="http://www.w3.org/2000/svg">
  <sodipodi:namedview
     id="namedview1"
     pagecolor="#ffffff"
     bordercolor="#000000"
     borderopacity="0.25"
     inkscape:showpageshadow="2"
     inkscape:pageopacity="0.0"
     inkscape:pagecheckerboard="0"
     inkscape:deskcolor="#d1d1d1"
     inkscape:document-units="mm"
     inkscape:zoom="2.8756734"
     inkscape:cx="34.600591"
     inkscape:cy="32.861868"
     inkscape:window-width="1920"
     inkscape:window-height="1009"
     inkscape:window-x="1912"
     inkscape:window-y="-8"
     inkscape:window-maximized="1"
     inkscape:current-layer="layer1" />
  <defs
     id="defs1" />
  <g
     inkscape:label="Layer 1"
     inkscape:groupmode="layer"
     id="layer1">
    <circle
       style="fill:#00005e;fill-opacity:1;stroke-width:0.25428"
       id="path2"
       cx="16.933332"
       cy="16.933332"
       r="16.933332" />
    <path
       d="M 16.30249,32.538596 C 13.937218,32.407337 11.989045,31.914018 10.030176,30.950297 8.4624985,30.179033 7.1607065,29.243023 5.8939985,27.976317 5.2788155,27.361132 4.8662085,26.8879 4.3996725,26.262423 1.9719535,23.007632 0.92730346,18.968634 1.4507665,14.860877 c 0.207353,-1.627136 0.719524,-3.322067 1.453397,-4.809706 0.797452,-1.6165166 1.697434,-2.8722126 2.975156,-4.1510616 1.270765,-1.271885 2.524705,-2.179315 4.081741,-2.9538 1.8035485,-0.897105 3.5705555,-1.390947 5.6739095,-1.58573 0.937856,-0.08685 2.557922,-0.03571 3.580329,0.113038 5.745167,0.835819 10.56923,4.827036 12.484674,10.3292686 0.999711,2.871737 1.120744,6.183545 0.334429,9.150729 -1.081115,4.079614 -3.781191,7.549204 -7.497737,9.634562 -1.587243,0.890606 -3.506579,1.537758 -5.336537,1.799351 -0.801719,0.114602 -2.221186,0.188605 -2.897638,0.151068 z M 7.7326005,20.84722 c 0.210523,-0.120756 0.520343,-0.456726 1.30486,-1.415007 2.0917785,-2.555095 2.0452535,-2.501565 2.1742445,-2.501565 0.03812,0 0.122755,0.05988 0.203751,0.144143 0.150874,0.156974 1.177242,1.381404 2.066469,2.465248 0.308058,0.37548 0.642026,0.764666 0.742154,0.864861 0.32424,0.324461 0.758456,0.500518 1.234431,0.500518 0.431495,0 0.748678,-0.110456 1.059154,-0.368832 0.256124,-0.21315 0.566687,-0.571291 1.85354,-2.137493 0.632143,-0.769371 1.183853,-1.414582 1.226025,-1.433791 0.04217,-0.01923 0.109054,-0.02681 0.148629,-0.01688 0.08691,0.02181 0.142181,0.08523 1.214056,1.393116 1.691631,2.064094 1.83746,2.222579 2.206352,2.397763 0.560437,0.266148 1.138622,0.247258 1.614297,-0.05274 0.213811,-0.134847 0.582705,-0.495417 0.893515,-0.873345 0.144056,-0.175168 0.714768,-0.861101 1.268239,-1.524296 1.433619,-1.717818 1.55858,-1.894617 1.51256,-2.139945 -0.03058,-0.162973 -0.123927,-0.328309 -0.259859,-0.460222 -0.217896,-0.211459 -0.480866,-0.287605 -0.741381,-0.214665 -0.177943,0.04982 -0.408439,0.291011 -1.24456,1.302267 -0.35045,0.423857 -0.978523,1.18153 -1.395723,1.683728 -0.919383,1.106686 -0.838902,1.061508 -1.211826,0.680188 -0.135861,-0.138916 -0.685581,-0.798731 -1.221598,-1.466251 -1.047962,-1.305049 -1.288579,-1.585813 -1.571689,-1.833902 -0.419997,-0.36804 -0.928888,-0.498355 -1.486746,-0.380712 -0.531902,0.112165 -0.784426,0.329731 -1.722112,1.483669 -0.938416,1.154829 -1.680281,2.038962 -1.892551,2.255485 -0.227316,0.231869 -0.301297,0.24415 -0.457857,0.07599 -0.132585,-0.142406 -1.728967,-2.065865 -2.171971,-2.616976 -0.76526,-0.952016 -1.111652,-1.194066 -1.765735,-1.233864 -0.46236,-0.02813 -0.893957,0.115048 -1.228223,0.407456 -0.0889,0.07776 -0.3262335,0.339891 -0.5274215,0.582505 -0.201189,0.242618 -0.742328,0.884872 -1.202532,1.427228 -1.463729,1.725037 -1.611848,1.934855 -1.617197,2.290806 -0.0029,0.194228 0.07629,0.346481 0.28719,0.552069 0.284868,0.277682 0.445745,0.314743 0.709515,0.163448 z m -0.04917,-5.227067 c 0.187948,-0.0902 0.604015,-0.513915 1.081793,-1.101675 2.2892895,-2.81628 2.3070685,-2.836957 2.4397295,-2.836957 0.0427,0 0.106796,0.02043 0.142436,0.04539 0.03564,0.02496 0.5609,0.649623 1.167245,1.388137 1.870483,2.2782 1.927345,2.334532 2.505634,2.482436 0.278672,0.07127 0.482298,0.07416 0.78733,0.01115 0.38438,-0.07939 0.593882,-0.197919 0.904501,-0.511727 0.15019,-0.151726 0.76404,-0.876445 1.36411,-1.610478 1.232215,-1.507302 1.502734,-1.804901 1.640662,-1.804901 0.08199,0 0.203496,0.137132 1.349282,1.522853 1.827561,2.210264 1.799264,2.181583 2.336306,2.367929 0.263237,0.09134 0.808679,0.09755 1.061959,0.01209 0.483249,-0.163058 0.596238,-0.276749 2.175103,-2.188563 0.468576,-0.56739 0.978083,-1.174985 1.132239,-1.350209 0.359778,-0.408946 0.49187,-0.583759 0.591736,-0.783111 0.09692,-0.193466 0.109752,-0.428395 0.03165,-0.579428 -0.07984,-0.154402 -0.305119,-0.362772 -0.480462,-0.444411 -0.409375,-0.190597 -0.647196,-0.03516 -1.41837,0.927038 -0.207313,0.258664 -0.745885,0.915115 -1.196827,1.458781 -0.450944,0.543662 -0.905894,1.093823 -1.011003,1.222579 -0.223347,0.273585 -0.29587,0.317725 -0.430434,0.261989 -0.124199,-0.05145 -0.27621,-0.227003 -1.631994,-1.884787 -0.636161,-0.777863 -1.245893,-1.496071 -1.354966,-1.596013 -0.377856,-0.346235 -0.737991,-0.47834 -1.246181,-0.457127 -0.548247,0.02289 -0.917809,0.208369 -1.312017,0.658509 -0.125339,0.143121 -0.727321,0.866757 -1.337739,1.608087 -1.345451,1.633996 -1.388073,1.681251 -1.51632,1.681251 -0.05289,0 -0.125698,-0.02617 -0.161801,-0.05815 -0.07403,-0.06559 -0.388951,-0.441945 -1.648166,-1.969691 -1.082253,-1.313047 -1.248708,-1.499118 -1.478062,-1.652277 -0.203766,-0.136067 -0.558547,-0.259668 -0.835198,-0.290967 -0.425944,-0.04819 -0.913683,0.130488 -1.291446,0.473101 -0.1128325,0.102335 -0.3584155,0.372579 -0.5457415,0.600542 -0.187331,0.227962 -0.7853,0.946974 -1.328828,1.597806 -1.439107,1.723227 -1.445323,1.732215 -1.416695,2.047922 0.01867,0.205871 0.104374,0.383687 0.27323,0.566874 0.231711,0.251378 0.413761,0.302897 0.657306,0.186019 z"
       style="fill:#ffcc00;stroke-width:0.0303418"
       id="path1" />
  </g>
</svg>
