<svg
      version="1.1"
      id="Layer_1"
      x="0px"
      y="0px"
      width="1600px"
      height="1600px"
      viewBox="0 0 1600 1600"
      enableBackground="new 0 0 1600 1600"
      xmlSpace="preserve"
      xmlns="http://www.w3.org/2000/svg"
    >
      <path
        fill="#fcbc03"
        opacity="1.000000"
        stroke="none"
        d=" M463.820557,787.124268 C476.285156,838.583313 488.646149,889.640686 500.976044,940.705505 C511.315826,983.528137 521.586731,1026.367310 531.947449,1069.184937 C542.929993,1114.572266 554.002930,1159.937866 564.997253,1205.322388 C572.002319,1234.238770 579.080322,1263.138672 585.852173,1292.109985 C590.458679,1311.817383 609.713501,1323.560059 629.220154,1318.563110 C664.640930,1309.489136 700.144470,1300.738647 735.595215,1291.781128 C779.748291,1280.624756 823.870911,1269.347534 868.028992,1258.211060 C909.606567,1247.725342 951.219238,1237.378784 992.805359,1226.926636 C1037.461304,1215.702759 1082.083252,1204.343750 1126.766357,1193.229736 C1138.648193,1190.274414 1144.397583,1181.365112 1148.993164,1171.407471 C1153.245483,1162.193970 1153.423828,1152.538086 1151.035645,1142.610107 C1140.267944,1097.849121 1129.701050,1053.039795 1119.075684,1008.244568 C1108.411987,963.288147 1097.770996,918.326477 1087.109009,873.369690 C1076.447632,828.415039 1065.771729,783.463867 1055.103638,738.510803 C1040.019165,674.947144 1024.936401,611.383057 1009.851929,547.819519 C1007.204285,536.662659 1004.436768,525.532776 1001.926270,514.345276 C997.737122,495.677277 986.118042,483.700287 968.644043,476.910919 C966.480896,476.070435 964.190979,475.561340 961.978638,474.840942 C956.814575,473.159454 953.866150,468.023499 955.194214,463.084442 C956.555847,458.020325 962.065979,454.807800 967.386963,456.323425 C996.232300,464.539703 1014.963440,482.437012 1021.281494,512.423767 C1023.885254,524.781921 1027.185669,536.992004 1029.961304,549.316223 C1030.671143,552.468140 1032.164917,554.058716 1035.277466,554.906189 C1063.347290,562.549133 1091.383911,570.314514 1119.428589,578.049561 C1129.845825,580.922729 1140.296997,583.680725 1150.666626,586.717041 C1178.888184,594.980591 1194.446899,622.949158 1187.021973,651.363281 C1173.363037,703.634644 1159.893921,755.955444 1146.302856,808.244568 C1137.018677,843.963440 1127.463745,879.614258 1118.583008,915.432617 C1117.443359,920.029541 1119.205688,925.555725 1120.360229,930.478699 C1130.078247,971.917419 1139.953613,1013.319214 1149.810791,1054.725220 C1156.778076,1083.991821 1163.702271,1113.269043 1170.811157,1142.501343 C1176.447632,1165.678955 1162.837036,1197.692993 1141.468628,1208.523438 C1134.220459,1212.197021 1125.631958,1213.293945 1117.596191,1215.332886 C1087.630005,1222.935791 1057.626465,1230.392944 1027.693115,1238.121826 C1026.160522,1238.517578 1024.470825,1240.741699 1023.996033,1242.434692 C1015.962769,1271.084229 1008.395874,1299.866699 1000.139221,1328.450562 C991.729980,1357.562500 963.052917,1374.081909 933.683655,1366.265137 C910.078186,1359.982178 886.832214,1352.346191 863.436646,1345.277954 C826.374146,1334.080444 789.231567,1323.133667 752.338013,1311.404053 C745.090454,1309.099854 738.947571,1310.653687 732.473328,1312.273926 C698.615051,1320.746826 664.787842,1329.345581 630.978027,1338.010376 C605.171692,1344.624023 574.673401,1326.296753 568.059631,1299.991699 C565.384277,1289.351074 562.598816,1278.724731 560.421509,1267.978638 C559.480957,1263.336426 557.104919,1261.434937 552.880920,1260.155273 C524.730957,1251.627563 496.555573,1243.167480 468.555695,1234.165283 C440.567291,1225.166626 426.006195,1197.445679 433.815857,1169.011597 C450.543427,1108.108521 467.021973,1047.134033 484.314667,986.391541 C487.731171,974.390625 486.949402,963.483582 484.014221,951.836304 C474.916046,915.733154 466.309540,879.506165 457.522949,843.324585 C448.030914,804.238220 438.528839,765.154358 429.071625,726.059509 C418.792053,683.565247 408.558624,641.059692 398.305969,598.558838 C395.383667,586.444946 392.007324,574.418396 389.649719,562.195435 C386.010010,543.325439 397.041718,519.698730 413.903717,510.558563 C419.180115,507.698425 425.526031,506.709686 431.466095,505.191650 C478.009918,493.297058 524.575256,481.486450 571.130249,469.635498 C575.478333,468.528625 579.783875,467.252960 584.139343,466.177704 C590.233215,464.673187 595.492615,467.774872 596.826538,473.544220 C597.966309,478.473907 594.483337,483.441681 588.774231,484.903564 C543.522339,496.490753 498.265778,508.060059 453.012360,519.641479 C443.996185,521.948914 434.964600,524.202515 425.992615,526.671570 C423.991272,527.222351 421.967438,528.282593 420.368469,529.608215 C409.979065,538.221802 406.387878,552.214600 409.803345,565.313660 C416.176727,589.757141 421.976501,614.350891 427.941010,638.900085 C434.887299,667.490234 441.744751,696.102051 448.658905,724.700012 C453.658478,745.378967 458.687592,766.050842 463.820557,787.124268 M1037.854248,575.618835 C1037.573608,576.801025 1036.830811,578.091736 1037.079346,579.149719 C1046.006836,617.160583 1055.026245,655.149963 1064.034180,693.141968 C1077.031494,747.960815 1090.022217,802.781250 1103.037842,857.595764 C1104.546875,863.950928 1106.195679,870.272888 1107.779663,876.610229 C1115.095459,851.691040 1121.487915,826.916809 1127.933472,802.156311 C1141.454102,750.216675 1155.078857,698.304016 1168.499878,646.338623 C1173.405029,627.346252 1162.951782,610.087463 1143.860229,604.856995 C1139.857178,603.760254 1135.893311,602.519775 1131.891602,601.418030 C1100.812988,592.861816 1069.729492,584.323486 1037.854248,575.618835 M476.096130,1087.667847 C467.970825,1117.480103 459.730988,1147.261963 451.767120,1177.117188 C447.601105,1192.735107 458.042603,1210.968384 473.397949,1215.694336 C491.493561,1221.263550 509.577332,1226.871338 527.674255,1232.436523 C535.992676,1234.994751 544.330078,1237.491577 553.575317,1240.293945 C534.922241,1163.206787 516.492310,1087.042114 498.062469,1010.877502 C497.775909,1010.919067 497.489380,1010.960693 497.202820,1011.002258 C490.245819,1036.298340 483.288849,1061.594360 476.096130,1087.667847 M839.602966,1317.940918 C872.180969,1327.829834 904.744934,1337.765503 937.342346,1347.590088 C956.501221,1353.364502 977.028748,1341.439697 982.082642,1322.097656 C986.449097,1305.386719 991.277466,1288.796997 995.841187,1272.137085 C998.321594,1263.082520 1000.675964,1253.993530 1003.301758,1244.112427 C929.151733,1262.794678 855.849792,1281.263306 782.547852,1299.731812 C782.584595,1300.039307 782.621338,1300.346680 782.658081,1300.654053 C801.385437,1306.333984 820.112732,1312.013916 839.602966,1317.940918 z"
      />
      <path
        fill="#fcbc03"
        opacity="1.000000"
        stroke="none"
        d=" M845.288086,510.586609 C837.817566,505.504150 830.966492,504.361908 822.458923,508.613312 C815.505371,512.088135 807.165039,512.787720 799.349365,514.740295 C800.843994,519.756042 802.812500,525.052124 803.967529,530.520142 C806.131470,540.763916 804.935730,550.774841 800.167847,560.159729 C793.802856,572.688232 791.417786,585.807556 793.002197,599.808838 C793.848022,607.284058 788.801270,612.033081 782.041931,610.928955 C777.521118,610.190369 774.788330,606.848389 774.010681,601.407410 C771.703552,585.264587 773.921082,569.684937 781.394836,555.299438 C789.069885,540.526489 784.601562,527.635315 777.022827,514.836731 C776.502991,513.958801 775.360657,513.235962 774.353821,512.892761 C763.569763,509.216675 752.754639,505.631683 741.793457,501.970062 C740.958801,505.092407 740.025146,509.293762 738.709045,513.371765 C735.205444,524.228210 728.711365,532.962280 718.926636,538.842163 C707.001282,546.008484 698.001526,555.606567 692.072083,568.219666 C689.123657,574.491577 684.050293,576.334412 678.674561,573.654358 C673.555908,571.102539 672.021973,565.594971 674.920227,559.468140 C681.775146,544.977173 691.501526,532.775574 705.466187,524.733215 C720.518250,516.064636 723.287537,502.130066 723.370117,486.724609 C723.376404,485.553162 722.529907,484.266968 721.810181,483.219238 C716.185181,475.030243 710.494202,466.886627 704.511658,458.280273 C703.975037,458.740601 702.639160,459.822327 701.374329,460.981476 C690.142517,471.274078 677.137390,476.603088 661.726196,475.030975 C647.960388,473.626740 634.915833,475.662476 622.580566,482.250641 C617.171387,485.139709 611.498474,483.071594 609.049377,478.024170 C606.683777,473.148834 608.574951,467.937103 614.016663,465.089233 C628.348511,457.588745 643.563843,453.521576 659.741577,455.747253 C677.577026,458.200928 688.565796,448.411469 698.265747,435.754761 C698.885071,434.946594 698.965881,433.579559 698.972046,432.470673 C699.024841,423.023804 699.002258,413.576477 699.002258,403.503815 C696.172180,403.503815 692.591919,403.610474 689.019775,403.485077 C674.701477,402.982574 662.399719,397.850311 652.861389,386.990692 C643.782837,376.654480 632.734680,369.789154 619.357605,366.503113 C613.740784,365.123352 610.930115,360.031097 612.277161,354.592682 C613.559570,349.415314 618.689453,346.531219 624.401245,347.962219 C639.595947,351.769073 653.522644,358.408783 663.562866,370.545044 C674.490479,383.753967 688.170105,385.765930 703.611389,383.429077 C705.058594,383.210052 706.839050,382.308655 707.639221,381.152679 C714.313477,371.510193 720.794006,361.733643 727.141418,352.282928 C722.495300,348.439514 716.615417,344.132690 711.404602,339.129089 C704.296936,332.304138 701.213135,323.243530 699.396423,313.814240 C697.049011,301.630219 691.134949,291.456635 682.667480,282.600494 C677.718506,277.424377 677.260498,271.765747 681.444214,267.700378 C685.839050,263.429871 691.597900,264.109833 696.753967,269.442657 C708.034607,281.110077 715.631714,294.788177 718.475525,310.795074 C721.278809,326.573486 732.712952,333.604340 745.936035,339.016083 C746.873108,339.399597 748.329895,339.266357 749.258911,338.801483 C760.093628,333.379669 771.578247,330.259674 783.858032,329.065399 C782.519043,323.881927 780.986450,319.032196 780.041870,314.070496 C777.977173,303.225891 779.760803,292.909882 784.869263,283.108643 C791.130188,271.096191 793.365723,258.360321 791.546387,244.894348 C790.845459,239.705872 794.194275,235.118896 799.076904,234.098740 C804.092773,233.050766 809.285645,236.187958 810.222351,241.642792 C813.005920,257.853149 811.326477,273.831512 803.570435,288.276794 C796.122375,302.148651 798.037598,314.762054 805.200684,327.531921 C805.918213,328.811127 807.426453,330.010925 808.825989,330.484802 C818.220642,333.665619 827.685181,336.639954 837.486206,339.796936 C838.392273,336.912048 839.505676,333.166046 840.743530,329.461639 C845.080688,316.481995 853.456970,306.962891 865.713013,300.970520 C877.781250,295.069977 886.897339,286.213165 893.471008,274.546265 C896.578125,269.031616 901.955933,267.589722 907.043335,270.509613 C911.580383,273.113647 913.040588,278.790527 910.191833,283.995117 C902.480896,298.082733 891.933594,309.724213 877.315552,316.458862 C861.598999,323.699646 857.006409,336.916626 855.255127,352.258759 C855.128357,353.368805 855.766602,354.904633 856.573242,355.730774 C865.259644,364.627167 872.057861,374.782410 876.945801,386.203491 C882.002014,382.574158 886.634155,378.825562 891.667419,375.728790 C900.757263,370.136139 910.785767,368.089783 921.376038,369.484161 C934.829468,371.255493 947.526917,369.123535 959.600952,362.915161 C965.243896,360.013672 970.672668,361.555725 973.343750,366.522614 C975.981689,371.427887 974.051575,376.952545 968.508911,379.915375 C953.992737,387.675049 938.426331,390.927704 922.173584,388.793396 C904.786560,386.510132 893.928223,395.860962 884.295288,408.126190 C883.726440,408.850464 883.214355,409.957520 883.310547,410.815338 C884.753906,423.691437 883.423889,436.336060 879.936218,448.752289 C886.302795,449.137787 892.265747,449.286407 898.179993,449.902832 C909.166626,451.047882 918.845154,455.360657 926.203674,463.677032 C936.178650,474.950500 947.837158,483.197174 962.611633,486.951477 C967.974548,488.314240 970.500183,493.754517 968.988098,498.792969 C967.544434,503.603668 962.957092,506.360138 957.540588,505.151398 C941.484924,501.568390 927.420715,494.083008 916.882568,481.398010 C904.180603,466.108521 888.057861,467.102997 871.169067,470.225952 C870.457031,470.357574 869.719666,471.004730 869.233521,471.605530 C863.727234,478.410461 858.267639,852.810242,492.067657 C857.203796,495.277008 862.217163,498.545288 866.779297,502.353973 C876.080261,510.118988 881.811890,520.065735 883.334961,532.170532 C885.069641,545.956970 890.294250,558.068726 899.641174,568.432739 C903.588867,572.810120 903.306091,578.648071 899.373352,582.322876 C895.176819,586.244080 889.608154,585.877686 885.261414,581.135437 C874.289246,569.164795 867.048767,555.218445 865.114929,539.056946 C863.544495,525.932190 856.883606,516.911316 845.288086,510.586609 M822.394714,488.028778 C844.078064,477.383820 857.958435,460.293823 862.930054,436.727051 C867.693909,414.145203 862.586060,393.465546 848.122742,375.311340 C833.836609,357.379608 814.571960,349.234009 792.238403,348.357056 C784.749817,348.062988 776.929565,349.463867 769.658447,351.505768 C729.774841,362.706207 707.344666,408.659302 722.225037,447.290436 C737.340820,486.532684 781.987122,506.355286 822.394714,488.028778 z"
      />
      <path
        fill="#fcbc03"
        opacity="1.000000"
        stroke="none"
        d=" M811.480103,1004.244873 C740.390930,1008.719116 677.324158,988.279297 620.930298,946.250732 C595.536316,927.325378 573.289307,905.165710 554.637024,879.501526 C548.769714,871.428589 548.677979,868.810059 554.799866,860.904541 C597.248779,806.088379 650.740417,766.800476 718.194031,749.054199 C797.475525,728.196045 872.276428,740.495117 941.753906,784.052917 C975.691833,805.329773 1004.486084,832.279053 1028.278564,864.524658 C1034.655884,873.167664 1034.697144,875.360046 1028.083618,883.873535 C985.321472,938.919739 931.256348,977.647949 863.551147,995.747864 C846.792542,1000.227905 829.171875,1001.483032 811.480103,1004.244873 M755.574280,983.013611 C788.575195,987.928772 821.351440,986.433472 853.707581,978.567932 C902.550781,966.694763 944.564209,942.188477 980.781372,907.682068 C991.689209,897.289490 1001.533508,885.780701 1012.280334,874.341125 C950.031006,797.920898 873.366028,753.442261 773.522156,759.404846 C689.307983,764.434082 624.184265,806.181824 571.306946,870.324707 C619.407288,930.396423 678.318665,970.860901 755.574280,983.013611 z"
      />
      <path
        fill="#fcbc03"
        opacity="1.000000"
        stroke="none"
        d=" M347.110962,841.077637 C340.111359,825.229370 329.350830,814.346130 312.122559,810.900391 C310.637054,810.603271 309.417084,808.978577 308.073792,807.970520 C309.303406,806.840149 310.348297,805.118347 311.790314,804.667969 C334.281097,797.643982 345.850922,781.000854 351.750671,759.430176 C352.926208,755.132263 353.103668,750.568665 354.113831,746.213989 C354.453217,744.750793 355.948456,743.555725 356.915466,742.238159 C357.936279,743.659363 359.726807,745.014465 359.855408,746.512268 C360.831451,757.882202 363.104095,768.858032 368.580292,778.988586 C375.219391,791.270508 384.553497,800.520691 397.965912,805.310364 C399.405975,805.824646 400.728821,807.410095 401.427734,808.832031 C401.655579,809.295532 399.921356,811.344238 398.752869,811.781311 C376.926239,819.946228 366.222687,837.010010 361.188477,858.577759 C360.248505,862.604919 360.115692,866.821106 359.166351,870.845276 C358.800323,872.396912 357.197571,873.656860 356.158264,875.049683 C355.210449,873.543640 353.767517,872.149902 353.396210,870.513062 C351.204865,860.853516 349.262726,851.137451 347.110962,841.077637 z"
      />
      <path
        fill="#fcbc03"
        opacity="1.000000"
        stroke="none"
        d=" M1265.529541,819.354370 C1271.833618,829.042114 1280.005615,835.771423 1290.642090,839.515991 C1291.942871,839.973877 1293.395874,841.460449 1293.703491,842.730713 C1293.888184,843.493164 1292.182739,845.280701 1290.996826,845.723755 C1267.621582,854.455017 1258.530273,873.210632 1255.351318,896.168762 C1255.237305,896.992310 1255.491821,898.007568 1255.093628,898.621460 C1254.294678,899.852661 1253.162842,900.867920 1252.168457,901.972290 C1251.223877,900.800903 1249.677246,899.737061 1249.445312,898.438416 C1248.687256,894.193298 1248.742432,889.794800 1247.885864,885.576843 C1244.486328,868.836975 1237.090576,854.812195 1220.543091,847.524475 C1217.688354,846.267151 1214.438965,845.927124 1211.520752,844.783203 C1210.219604,844.273071 1209.287720,842.820740 1208.188232,841.796021 C1209.145508,840.825378 1209.936157,839.321594 1211.084717,838.962524 C1235.968262,831.183716 1246.180176,812.272766 1250.004395,788.307983 C1250.299683,786.457581 1252.119141,784.850525 1253.230225,783.130371 C1254.131104,784.874329 1255.668091,786.561951 1255.828613,788.371643 C1256.798462,799.308289 1259.590820,809.619507 1265.529541,819.354370 z"
      />
      <path
        fill="#fcbc03"
        opacity="1.000000"
        stroke="none"
        d=" M982.698242,1146.938354 C981.537048,1141.372925 980.957703,1135.938477 979.847107,1130.614746 C976.593079,1115.016479 969.759949,1101.706543 954.798462,1094.209106 C951.289612,1092.450806 947.234985,1091.812256 943.549377,1090.359497 C942.242371,1089.844360 941.286011,1088.439697 940.169678,1087.441040 C941.149231,1086.467529 941.962952,1084.965210 943.132751,1084.598389 C968.196899,1076.739624 978.508423,1057.785522 982.033997,1033.518555 C982.271362,1031.885010 984.123352,1030.486084 985.224365,1028.977905 C986.160156,1030.655884 987.765869,1032.273438 987.923035,1034.021484 C988.936462,1045.287231 991.743286,1055.918945 997.964905,1065.490112 C1003.960938,1074.714233 1012.020874,1081.325562 1022.439453,1085.075928 C1023.782654,1085.559448 1024.763062,1087.050415 1025.911621,1088.074707 C1024.881470,1089.178345 1024.058228,1090.809814 1022.790344,1091.307007 C1001.222839,1099.765503 991.449646,1116.847168 987.938049,1138.572388 C987.619751,1140.541748 987.832947,1142.746704 986.983521,1144.430908 C986.356506,1145.674316 984.400940,1146.247803 982.698242,1146.938354 z"
      />
      <path
        fill="#fcbc03"
        opacity="1.000000"
        stroke="none"
        d=" M491.695435,424.848907 C490.854340,429.487427 490.352539,433.786957 489.326111,437.957336 C488.985016,439.343262 487.297089,440.397705 486.224915,441.603668 C485.322540,440.387909 483.740265,439.232056 483.627045,437.946777 C482.835358,428.959259 481.607910,420.134003 477.518005,411.915771 C472.038330,400.905029 463.998138,393.178040 451.539124,390.649628 C450.077972,390.353088 448.894592,388.688019 447.582428,387.657379 C448.743439,386.479950 449.703766,384.654602 451.095886,384.223450 C468.494720,378.834717 477.359314,365.943359 482.018616,349.362396 C483.001251,345.865387 483.187378,342.146179 484.145416,338.639984 C484.536652,337.208282 486.004608,336.070801 486.982697,334.799469 C487.975952,336.209595 489.717743,337.554901 489.846283,339.039886 C491.088837,353.392151 495.157104,366.560486 506.206024,376.432495 C510.079193,379.893066 515.119080,382.034698 519.561584,384.879425 C520.849426,385.704163 521.913269,386.878815 523.079773,387.893005 C521.922729,389.090210 520.985718,390.816040 519.574829,391.403290 C504.576721,397.645752 496.003204,409.183044 491.695435,424.848907 z"
      />
      <path
        fill="#fcbc03"
        opacity="1.000000"
        stroke="none"
        d=" M882.563843,684.658081 C878.532776,698.247864 874.681091,711.474670 870.791443,724.690308 C868.827881,731.361816 863.862671,734.546814 858.146729,732.882202 C852.675903,731.289001 850.217651,725.605103 852.166016,719.022949 C860.266663,691.656616 868.368958,664.290710 876.475708,636.926270 C878.475342,630.176392 883.411682,626.677917 888.792053,628.173828 C894.829895,629.852539 897.194214,635.496643 895.025146,642.757080 C890.892029,656.591431 886.823120,670.445007 882.563843,684.658081 z"
      />
      <path
        fill="#fcbc03"
        opacity="1.000000"
        stroke="none"
        d=" M1088.963379,458.008179 C1087.230591,443.632446 1081.166504,432.582825 1067.733765,426.742126 C1064.722290,425.432648 1061.301636,425.087921 1058.214478,423.916748 C1056.943481,423.434540 1056.055786,421.942505 1054.993652,420.909821 C1055.965332,419.953583 1056.789673,418.417633 1057.930542,418.127777 C1076.026245,413.530823 1086.373413,401.961700 1089.630981,383.694855 C1089.886475,382.262085 1091.500122,381.071472 1092.482422,379.768280 C1093.490601,381.021118 1095.237427,382.187714 1095.395386,383.539825 C1097.482178,401.410156 1106.677368,413.281616 1124.091675,418.587189 C1125.245728,418.938812 1127.016357,421.038452 1126.823975,421.379700 C1126.028809,422.789764 1124.782227,424.475647 1123.352051,424.910278 C1114.760498,427.521179 1107.216064,431.946991 1102.720459,439.661102 C1099.293335,445.541595 1097.659302,452.452057 1095.032593,458.824005 C1094.338867,460.506897 1092.923828,461.892456 1091.839966,463.414551 C1090.881470,461.749542 1089.922974,460.084534 1088.963379,458.008179 z"
      />
      <path
        fill="#fcbc03"
        opacity="1.000000"
        stroke="none"
        d=" M635.880554,1157.058594 C633.847656,1155.973145 632.204773,1154.937744 630.561951,1153.902222 C631.943237,1152.756714 633.152283,1151.011719 634.732239,1150.557739 C652.177246,1145.545410 662.438171,1134.356689 665.145752,1116.266357 C665.357666,1114.850952 667.140930,1113.670532 668.193909,1112.380981 C669.220642,1113.783081 670.990601,1115.100708 671.160706,1116.599854 C673.150696,1134.137939 682.384094,1145.622559 699.155457,1151.164551 C700.524597,1151.616943 701.558655,1153.083496 702.748413,1154.078735 C701.540710,1155.235107 700.531067,1156.963135 699.095032,1157.460693 C682.548218,1163.194824 673.014587,1174.485107 670.810730,1191.989502 C670.624573,1193.468262 668.680725,1194.725830 667.553467,1196.086060 C666.623535,1194.620605 665.034912,1193.227905 664.863831,1191.678589 C662.760925,1172.635010 654.201721,1162.176025 635.880554,1157.058594 z"
      />
      <path
        fill="#fcbc03"
        opacity="1.000000"
        stroke="none"
        d=" M782.032349,648.917114 C782.320374,641.609924 782.551086,634.787964 782.902039,627.972168 C783.199890,622.187805 787.423767,617.995667 792.717102,618.062805 C798.034180,618.130249 802.262024,622.435669 802.018555,628.306274 C800.798340,657.734253 799.449951,687.157288 798.025269,716.576172 C797.768921,721.869507 793.548218,725.513062 788.459595,725.453918 C783.325684,725.394226 779.061279,721.289917 779.165283,715.752136 C779.368225,704.937073 779.916321,694.127502 780.394165,683.318848 C780.894104,672.012268 781.479309,660.709534 782.032349,648.917114 z"
      />
      <path
        fill="#fcbc03"
        opacity="1.000000"
        stroke="none"
        d=" M969.301880,663.217407 C979.308350,664.353943 982.828064,671.354919 977.658325,679.374084 C962.602783,702.727722 947.477600,726.036621 932.316772,749.322083 C928.523376,755.148438 923.451721,756.421265 918.292908,753.136719 C913.374084,750.004822 912.476746,744.448486 916.187866,738.706848 C931.090881,715.649414 945.966370,692.572876 961.113342,669.676270 C962.884277,666.999207 966.276184,665.394531 969.301880,663.217407 z"
      />
      <path
        fill="#fcbc03"
        opacity="1.000000"
        stroke="none"
        d=" M713.261230,672.643494 C717.993103,688.102112 722.637146,703.168945 727.244446,718.246948 C728.931152,723.767029 726.373779,729.211670 721.442993,730.780029 C716.031799,732.501160 710.684814,729.703369 708.911621,723.967957 C701.262451,699.226501 693.650085,674.473389 686.114014,649.697327 C684.108704,643.104675 686.379517,638.104797 691.832581,636.307861 C697.383484,634.478760 702.279114,637.472473 704.431091,644.214661 C707.407654,653.540283 710.255737,662.906982 713.261230,672.643494 z"
      />
      <path
        fill="#fcbc03"
        opacity="1.000000"
        stroke="none"
        d=" M656.760803,735.175049 C658.391052,737.916992 659.881287,740.319275 661.265503,742.781067 C664.593994,748.700684 663.618896,754.339050 658.824707,757.213501 C653.720276,760.274048 648.178589,758.473206 644.626465,752.517700 C634.066772,734.813416 623.533508,717.093384 612.992798,699.377747 C610.953430,695.950378 608.859924,692.552795 606.909790,689.075195 C603.863770,683.643250 605.196472,678.051025 610.094543,675.268921 C614.841431,672.572693 620.193298,673.994629 623.333740,679.207397 C634.484314,697.716309 645.503601,716.304382 656.760803,735.175049 z"
      />
      <path
        fill="#fcbc03"
        opacity="1.000000"
        stroke="none"
        d=" M997.122009,775.125488 C992.517334,779.710693 988.242981,784.129028 983.837952,788.413086 C979.086731,793.033691 973.306824,793.161072 969.279236,788.892883 C965.600220,784.994080 965.997864,779.068298 970.387573,774.665833 C985.418640,759.591003 1000.477844,744.544128 1015.557617,729.517883 C1020.230530,724.861572 1026.043823,724.558899 1030.062012,728.632751 C1034.227661,732.856018 1033.987427,738.208862 1029.104980,743.151855 C1018.594116,753.792969 1007.971558,764.323669 997.122009,775.125488 z"
      />
      <path
        fill="#fcbc03"
        opacity="1.000000"
        stroke="none"
        d=" M594.203857,786.696777 C589.679138,787.773621 586.452942,786.135498 583.419617,783.416992 C569.651550,771.078003 555.794434,758.838379 542.000061,746.528687 C537.214783,742.258362 536.440796,736.085632 540.052795,731.942505 C543.761841,727.688110 549.709290,727.628540 554.671326,732.007812 C568.655823,744.350098 582.608521,756.728882 596.509705,769.164978 C603.182434,775.134521 602.351318,782.037415 594.203857,786.696777 z"
      />
      <path
        fill="#fcbc03"
        opacity="1.000000"
        stroke="none"
        d=" M735.398865,954.620728 C702.624146,930.511475 688.225037,898.226562 694.476379,858.627563 C700.604187,819.810608 723.757812,793.037781 761.242188,781.257507 C821.815125,762.221252 878.862366,802.984863 887.060852,859.760803 C894.454712,910.964539 860.975647,959.476440 811.467834,969.522278 C784.150513,975.065308 758.917847,970.208008 735.398865,954.620728 M718.510132,904.860046 C736.401611,944.965576 781.892273,963.364868 821.033203,946.326965 C861.073181,928.897583 879.608887,883.678650 862.979370,843.995911 C846.405884,804.446838 800.608887,785.315369 761.211182,801.482666 C720.784607,818.072327 701.811890,863.372009 718.510132,904.860046 z"
      />
      <path
        fill="#fcbc03"
        opacity="1.000000"
        stroke="none"
        d=" M831.923462,877.586060 C828.751404,896.479187 814.640747,910.302124 797.120605,912.085693 C777.727295,914.060059 761.185608,903.897278 754.277771,885.764343 C746.759460,866.028992 757.420105,842.486511 777.344849,834.823853 C798.231873,826.791138 822.316345,837.034912 829.332520,857.618286 C831.410828,863.715332 831.154053,870.608337 831.923462,877.586060 z"
      />
    </svg>